<svg width="72" height="31" viewBox="0 0 72 31" fill="none" xmlns="http://www.w3.org/2000/svg">
<path d="M13.6076 3.93859C14.4553 2.87829 15.0305 1.45475 14.8789 0C13.638 0.0617338 12.1238 0.81871 11.2471 1.87972C10.4599 2.78843 9.76328 4.27158 9.94496 5.66531C11.3377 5.7861 12.7295 4.96908 13.6076 3.93859ZM14.863 5.93741C12.8401 5.8169 11.1202 7.08546 10.1541 7.08546C9.18756 7.08546 7.7082 5.99816 6.10819 6.02741C4.02569 6.05807 2.09338 7.23551 1.03659 9.1082C-1.13703 12.8546 0.462989 18.4117 2.5767 21.4628C3.60312 22.9723 4.84032 24.6345 6.47029 24.5747C8.0104 24.5142 8.6141 23.5774 10.4861 23.5774C12.3568 23.5774 12.9006 24.5747 14.5308 24.5445C16.2216 24.5142 17.2785 23.0342 18.3049 21.5232C19.4825 19.8023 19.9645 18.1409 19.9948 18.0496C19.9644 18.0194 16.7347 16.7803 16.7047 13.0652C16.6742 9.95447 19.2405 8.47469 19.3613 8.383C17.9123 6.23989 15.648 5.99816 14.863 5.93741ZM32.4768 1.72742C36.8736 1.72742 39.9351 4.75814 39.9351 9.17063C39.9351 13.5989 36.8104 16.6453 32.3666 16.6453H27.4986V24.3868H23.9815V1.72742H32.4768ZM27.4985 13.6931H31.5341C34.5963 13.6931 36.339 12.0444 36.339 9.18638C36.339 6.32863 34.5963 4.69543 31.5498 4.69543H27.4985V13.6931ZM40.8541 19.6918C40.8541 16.8023 43.0682 15.0279 46.9942 14.8081L51.5164 14.5412V13.2694C51.5164 11.4321 50.2758 10.3329 48.2035 10.3329C46.2401 10.3329 45.0153 11.2749 44.7173 12.7512H41.5139C41.7023 9.76744 44.2459 7.56907 48.3289 7.56907C52.333 7.56907 54.8925 9.68897 54.8925 13.0022V24.3868H51.6419V21.6703H51.5637C50.6059 23.5076 48.5172 24.6695 46.3503 24.6695C43.1154 24.6695 40.8541 22.6594 40.8541 19.6918ZM51.5163 18.2001V16.8968L47.4492 17.1479C45.4235 17.2894 44.2773 18.1845 44.2773 19.5977C44.2773 21.0422 45.4706 21.9845 47.2922 21.9845C49.6633 21.9843 51.5163 20.3512 51.5163 18.2001ZM57.9612 30.464V27.7159C58.2121 27.7787 58.7772 27.7787 59.06 27.7787C60.6302 27.7787 61.4783 27.1193 61.9963 25.4234C61.9963 25.3919 62.2949 24.4183 62.2949 24.4026L56.328 7.86733H60.0021L64.1796 21.3091H64.242L68.4195 7.86733H71.9994L65.812 25.2504C64.3992 29.2549 62.766 30.5425 59.3428 30.5425C59.06 30.5425 58.2119 30.511 57.9612 30.464Z" fill="black"/>
</svg>
