<?xml version="1.0" encoding="utf-8"?>
<!-- Generator: Adobe Illustrator 22.0.0, SVG Export Plug-In . SVG Version: 6.00 Build 0)  -->
<svg version="1.1" id="Layer_1" xmlns="http://www.w3.org/2000/svg" xmlns:xlink="http://www.w3.org/1999/xlink" x="0px" y="0px"
	 viewBox="0 0 914.1 317" style="enable-background:new 0 0 914.1 317;" xml:space="preserve">
<style type="text/css">
	.st0{fill:#289BD7;}
	.st1{fill:#85B840;}
</style>
<g>
	<path d="M906,73.9c-0.6,2.5-1.2,5-1.8,7.5c-6,23.4-25.2,37.5-50.3,36.8c-9.6-0.2-18.9-1.7-28.1-4.7c-3.1-1-7,0.3-10.5,0.7
		c-4.7,0.4-9.3,1.2-14,1.2c-43.9,0.1-87.9,0.1-131.8,0.1c-1.5,0-2.9,0-4.8,0c1.1-7.3,2.1-14.1,3.1-20.7c18.4,0,36.5,0,55.2,0
		c-0.3,0.4-0.1,0.2-0.1,0.1c-0.2-13.5-0.4-27-0.8-40.5c-0.1-2.5-1.2-5.1-2.1-7.5c-3.5-8.6-10-13-19.3-13c-7.3,0-14.6,0-22,0
		c-1.3,0-2.6,0-4.4,0c1-6.8,1.8-13,2.8-19.2c0.1-0.7,1.4-1.9,2.1-1.9c12.4,0.2,24.9-0.5,37.1,1.2c18.3,2.6,31.4,17.2,34.6,36.6
		c1.2,7.2,1.3,14.6,1.5,21.9c0.2,7,0.1,14.1,0.1,21.4c1.3,0.1,2.4,0.2,3.5,0.3c15.9,0,31.8-0.1,47.6,0.1c3.3,0,4.5-1.4,4.8-4.2
		c0.2-2,0.3-4,0.3-5.9c0-13.3,0-26.6,0-39.8c0-15.5,6.3-24.4,21.1-29c5.9-1.8,12.1-2.7,18.1-3.9c4.2,0,8.4,0,12.7,0
		c0.9,0.2,1.9,0.6,2.8,0.7c20.2,2.7,35,15.6,40.4,35.4c0.8,3.1,1.5,6.2,2.2,9.3C906,62.4,906,68.1,906,73.9z M836,40
		c0.3,3.9,0.8,7.2,0.8,10.5c0.1,12.5,0.2,25,0,37.6c0,3.1,1.1,4.2,3.9,4.4c4.9,0.3,9.9,1,14.8,1.1c10.7,0.2,17.7-4.9,20.6-15.2
		c2.6-9.4,2.6-18.9,0.1-28.3c-1.5-5.6-4.5-10.5-10.3-12.4C855.4,34.3,845.4,36.2,836,40z"/>
	<path d="M654.2,13.1c-1.1,7-2.1,13.7-3.2,20.9c-1.6,0-3,0-4.5,0c-18.6,0-37.2,0-55.9,0c-2.6,0-5.2,0-7.8,0.4
		c-7.6,0.9-11.6,5.7-11.3,13.1c0.3,7.3,4.9,12.1,12.3,12.3c9.4,0.3,18.9,0,28.3,0.2c4.2,0.1,8.5,0.4,12.5,1.3
		c15.6,3.3,25.5,15.8,25.3,31.8c-0.1,4.1-0.5,8.2-1.5,12.1c-3.2,12.8-12.5,18.9-24.6,21.3c-6.2,1.2-12.5,1.8-18.8,1.8
		c-41.3,0.1-82.7,0.2-124-0.2c-25.8-0.2-42.8-17-44.3-42.7c-0.7-12.6-1.3-25.3,2.2-37.7c5.8-20.5,21.8-33,43.2-33.4
		c13-0.2,26,0,39.3,0c-1,7.1-2,14-3.1,21.3c-5,0-9.9,0-14.9,0c-4.8,0-9.7-0.1-14.5,0.1c-8.7,0.4-15.3,4.6-18.6,12.6
		c-1.9,4.5-3.1,9.5-3.3,14.4c-0.3,9-0.4,18.2,0.9,27c1.6,10.2,8.6,16.3,18.9,17c12.1,0.7,24.3,0.5,36.5,0.6
		c26.7,0.1,53.4,0.1,80.1,0.1c2,0,4,0,5.9-0.4c8.1-1.5,12.7-7.5,12-15.3c-0.7-7.8-6.2-12.8-14.5-12.9c-11.7-0.2-23.3,0.1-35-0.5
		c-13.8-0.7-23.8-8.5-27.4-20.3c-4.2-13.7-0.4-28.1,9.6-35.9c8-6.2,17.4-8.8,27.1-8.9c23.8-0.4,47.7-0.2,71.5-0.3
		C653.1,12.8,653.5,12.9,654.2,13.1z"/>
	<g>
		<path d="M906,309.2c-9.3-1.7-18.5-3.5-27.8-4.9c-2.6-0.4-5.4,0.3-8,0.7c-11.3,2.1-22.6,3.4-33.9,0.4c-13.5-3.6-21.1-13-21.6-26.7
			c-0.5-14.2,6.1-24.4,19.8-28.2c8.1-2.3,16.8-2.9,25.2-3.6c5.8-0.5,11.6-0.1,17.4-0.1c2.8-11.8-2.7-19.2-14.4-19.4
			c-12.9-0.2-25.3,2.7-37.5,6.9c-1.2,0.4-2.3,0.7-3.8,1.2c-1-7.1-2-13.9-3.1-20.9c20.1-6.4,40-12.2,61.3-8
			c15.5,3.1,23.7,12,25.7,27.6c0.1,1,0.4,1.9,0.7,2.9C906,261,906,285.1,906,309.2z M866.9,263.8c0-0.2-0.1-0.3-0.1-0.5
			c-5.3,0.7-10.9,1-16,2.4c-5.3,1.5-7.8,6.5-7.3,12.3c0.4,5,3.4,9,8.8,9.5c5.5,0.5,11.3,0.1,16.8-0.9c9.2-1.6,9.2-2,9.1-11.4
			c0-3.7,0.9-8.5-1-10.6C875.5,262.8,870.4,264,866.9,263.8z"/>
		<path d="M580.2,306c-10,0-19.4,0-29.2,0c0-1.7,0-3.1,0-4.6c0-18.6,0-37.2,0-55.9c0-2,0-4-0.2-5.9c-0.7-5.6-4.3-9.5-9.8-10.1
			c-6.7-0.7-13.1,0.4-18.4,3.1c0.2,8.2,0.5,15.9,0.5,23.7c0.1,15.1,0,30.3,0,45.4c0,1.3,0,2.7,0,4.2c-9.7,0-19.1,0-29.1,0
			c0-1.4,0-2.9,0-4.3c0-18.6-0.2-37.2,0.1-55.9c0.2-14.5-6.3-18.3-19.9-15.9c-8.1,1.4-8.1,1.6-8.1,9.8c0,20.5,0,41,0,61.4
			c0,1.5,0,2.9,0,4.7c-10,0-19.6,0-29.6,0c0-1.6,0-3,0-4.5c0-24.1,0-48.2,0-72.2c0-12.2,3.1-16.3,14.9-19.6c14.6-4,29.5-6,44.5-3
			c4.1,0.8,8,2.6,11.7,4.4c2,1,3.4,1.2,5.4,0.4c14.3-6,29.2-7.9,44.4-4.2c13.4,3.3,21.7,12.7,22.2,26.4c0.7,19.1,0.5,38.2,0.6,57.3
			C580.3,295.8,580.2,300.8,580.2,306z"/>
		<path d="M768.7,209.5c0-1.7,0-3,0-4.3c0-12.2,0-24.3,0-36.5c0-1.9,0.2-3.3,2.6-3.7c8.8-1.4,17.6-2.9,26.9-4.5c0,1.5,0,2.9,0,4.2
			c0,39.9,0,79.9,0,119.8c0,11.4-2.5,14.9-13.4,18.3c-14.2,4.4-28.8,5.4-43.4,3.2c-21.2-3.2-35.3-19.1-37-41.3
			c-0.7-9.6-0.4-19.1,2.1-28.4c5-18.8,18.4-30,37.8-30.4c6.6-0.1,13.2,1.4,19.8,2.3C765.4,208.4,766.8,208.9,768.7,209.5z
			 M768.7,257.1c0-4.8,0-9.7,0-14.5c0-13.3,0-13.3-13.4-14.5c-10.4-0.9-18,4.1-20.6,14.2c-2.4,9.3-2.4,18.7,0.1,27.9
			c2.8,10.3,9.8,15.5,20.5,15.3c3.2-0.1,6.4-0.8,9.6-1c3-0.2,4.1-1.5,4-4.7C768.5,272.2,768.7,264.6,768.7,257.1z"/>
		<path d="M659.4,246.7c1-14.9-3.6-19.8-17.8-19.4c-11.8,0.3-23.1,3-34.2,6.8c-1.2,0.4-2.3,0.7-4,1.3c-1-6.7-1.9-13.1-2.7-19.6
			c-0.1-0.6,0.8-1.8,1.5-2c16-5.1,32.1-9.6,49.1-8.7c2.6,0.1,5.2,0.4,7.8,0.8c19.2,3.3,28.3,13.8,28.4,33.5c0.2,22.3,0,44.7,0,67
			c0,0.7-0.1,1.5-0.1,2.6c-3.3-0.6-6.4-0.9-9.5-1.7c-11.9-3-23.7-3.6-35.9-1c-8.7,1.9-17.8,1.2-26.5-1.7
			c-12.1-4.2-18.6-13.2-19-26.1c-0.4-13.2,5.3-22.4,17.1-27.4c8-3.4,16.5-4.3,25.1-4.5C645.6,246.6,652.4,246.7,659.4,246.7z
			 M660,264.5c-8.5,0-16.3-0.5-24.1,0.2c-7.1,0.6-11.1,6.1-10.7,12.9c0.3,6.3,4.9,11,12,10.7c7.1-0.3,14.1-2.1,21.2-3.4
			c0.7-0.1,1.6-1.3,1.6-2C660.1,276.7,660,270.7,660,264.5z"/>
	</g>
	<rect x="13" y="11.3" class="st0" width="377.6" height="125.1"/>
	<rect x="13" y="181.9" class="st1" width="377.6" height="125.1"/>
</g>
</svg>
