<svg width="72" height="23" viewBox="0 0 72 23" fill="none" xmlns="http://www.w3.org/2000/svg">
<path d="M26.3999 22.1984L30.057 1.62698H35.7713L32.2285 22.1984H26.3999Z" fill="#3C58BF"/>
<path d="M26.3999 22.1984L31.0856 1.62698H35.7713L32.2285 22.1984H26.3999Z" fill="#293688"/>
<path d="M52.9142 1.85555C51.7713 1.39841 49.9428 0.941269 47.657 0.941269C41.9428 0.941269 37.8285 3.79841 37.8285 7.91269C37.8285 10.9984 40.6856 12.5984 42.9713 13.627C45.257 14.6556 45.9428 15.3413 45.9428 16.2555C45.9428 17.627 44.1142 18.3127 42.5142 18.3127C40.2285 18.3127 38.9713 17.9698 37.0285 17.1698L36.2285 16.827L35.4285 21.5127C36.7999 22.0841 39.3142 22.6556 41.9428 22.6556C47.9999 22.6556 51.9999 19.7984 51.9999 15.4556C51.9999 13.0556 50.5142 11.227 47.0856 9.74127C45.0285 8.7127 43.7713 8.14127 43.7713 7.1127C43.7713 6.19841 44.7999 5.28412 47.0856 5.28412C49.0285 5.28412 50.3999 5.62698 51.4285 6.08413L51.9999 6.3127L52.9142 1.85555Z" fill="#3C58BF"/>
<path d="M52.9142 1.85555C51.7713 1.39841 49.9428 0.941269 47.657 0.941269C41.9428 0.941269 38.857 3.79841 38.857 7.91269C38.857 10.9984 40.6856 12.5984 42.9713 13.627C45.257 14.6556 45.9428 15.3413 45.9428 16.2555C45.9428 17.627 44.1142 18.3127 42.5142 18.3127C40.2285 18.3127 38.9713 17.9698 37.0285 17.1698L36.2285 16.827L35.4285 21.5127C36.7999 22.0841 39.3142 22.6556 41.9428 22.6556C47.9999 22.6556 51.9999 19.7984 51.9999 15.4556C51.9999 13.0556 50.5142 11.227 47.0856 9.74127C45.0285 8.7127 43.7713 8.14127 43.7713 7.1127C43.7713 6.19841 44.7999 5.28412 47.0856 5.28412C49.0285 5.28412 50.3999 5.62698 51.4285 6.08413L51.9999 6.3127L52.9142 1.85555Z" fill="#293688"/>
<path d="M62.7428 1.62698C61.3714 1.62698 60.3428 1.74127 59.7714 3.1127L51.2 22.1984H57.3714L58.5142 18.7698H65.8285L66.5142 22.1984H72L67.2 1.62698H62.7428ZM60.1142 15.3413C60.4571 14.3127 62.4 9.28413 62.4 9.28413C62.4 9.28413 62.8571 8.02699 63.2 7.22698L63.5428 9.16984C63.5428 9.16984 64.6857 14.3127 64.9142 15.4556H60.1142V15.3413Z" fill="#3C58BF"/>
<path d="M64.1142 1.62698C62.7428 1.62698 61.7142 1.74127 61.1428 3.1127L51.2 22.1984H57.3714L58.5142 18.7698H65.8285L66.5142 22.1984H72L67.2 1.62698H64.1142ZM60.1142 15.3413C60.5714 14.1984 62.4 9.28413 62.4 9.28413C62.4 9.28413 62.8571 8.02699 63.2 7.22698L63.5428 9.16984C63.5428 9.16984 64.6857 14.3127 64.9142 15.4556H60.1142V15.3413Z" fill="#293688"/>
<path d="M15.8856 16.027L15.3142 13.0556C14.2856 9.62698 10.9714 5.85556 7.31421 4.02699L12.4571 22.3127H18.6285L27.8856 1.74127H21.7142L15.8856 16.027Z" fill="#3C58BF"/>
<path d="M15.8856 16.027L15.3142 13.0556C14.2856 9.62698 10.9714 5.85556 7.31421 4.02699L12.4571 22.3127H18.6285L27.8856 1.74127H22.8571L15.8856 16.027Z" fill="#293688"/>
<path d="M0 1.62698L1.02857 1.85556C8.34286 3.56984 13.3714 7.9127 15.3143 13.0556L13.2571 3.34127C12.9143 1.96984 11.8857 1.62698 10.6286 1.62698H0Z" fill="#FFBC00"/>
<path d="M0 1.62698C7.31428 3.34127 13.3714 7.79841 15.3143 12.9413L13.3714 4.82698C13.0286 3.45556 11.8857 2.65556 10.6286 2.65556L0 1.62698Z" fill="#F7981D"/>
<path d="M0 1.62698C7.31428 3.34127 13.3714 7.79841 15.3143 12.9413L13.9429 8.48413C13.6 7.1127 13.1429 5.74127 11.5429 5.16984L0 1.62698Z" fill="#ED7C00"/>
<path d="M21.5999 15.3413L17.7142 11.4555L15.8856 15.7984L15.4285 12.9413C14.3999 9.51269 11.0856 5.74126 7.42847 3.91269L12.5713 22.1984H18.7428L21.5999 15.3413ZM32.2285 22.1984L27.3142 17.1698L26.3999 22.1984H32.2285ZM45.3713 15.1127C45.8285 15.5698 46.057 15.9127 45.9427 16.3698C45.9427 17.7413 44.1142 18.427 42.5142 18.427C40.2285 18.427 38.9713 18.0841 37.0285 17.2841L36.2285 16.9413L35.4285 21.627C36.7999 22.1984 39.3142 22.7698 41.9427 22.7698C45.5999 22.7698 48.5713 21.7413 50.2856 19.9127L45.3713 15.1127ZM51.9999 22.1984H57.3713L58.5142 18.7698H65.8285L66.5142 22.1984H71.9999L70.057 13.8555L63.1999 7.22698L63.5427 9.05555C63.5427 9.05555 64.6856 14.1984 64.9142 15.3413H60.1142C60.5713 14.1984 62.3999 9.28412 62.3999 9.28412C62.3999 9.28412 62.857 8.02698 63.1999 7.22698" fill="#051244"/>
</svg>
