<svg width="160" height="160" viewBox="0 0 160 160" fill="none" xmlns="http://www.w3.org/2000/svg">
<path fill-rule="evenodd" clip-rule="evenodd" d="M2.74641 59.2999C14.1832 16.617 58.0367 -8.68573 100.7 2.74594C143.363 14.1776 168.69 58.0173 157.254 100.7C145.817 143.383 101.963 168.686 59.2999 157.254C16.6367 145.822 -8.69036 101.983 2.74641 59.2999ZM65.5249 111.277C66.8277 113.696 69.8582 114.611 72.2956 113.298C73.027 112.925 123.019 62.667 123.019 62.667C124.959 60.7548 124.97 57.549 123.011 55.6269C121.06 53.6552 117.89 53.6856 115.95 55.5978L70.7376 100.823L52.7325 80.26C51.4249 77.8396 48.3944 76.9241 45.957 78.2375C43.5325 79.5026 42.6031 82.5656 43.9107 84.986L65.5249 111.277Z" fill="url(#paint0_linear_1_3437)"/>
<defs>
<linearGradient id="paint0_linear_1_3437" x1="0" y1="0" x2="0" y2="160" gradientUnits="userSpaceOnUse">
<stop stop-color="#E9BA42"/>
<stop offset="1" stop-color="#E9BA42"/>
</linearGradient>
</defs>
</svg>
