<svg width="145" height="173" viewBox="0 0 145 173" fill="none" xmlns="http://www.w3.org/2000/svg">
<g id="Layer_1" clip-path="url(#clip0_370_179)">
<g id="Group">
<path id="Vector" d="M26.2812 142.856C25.7614 142.336 25.1384 142.079 24.4152 142.079C23.6921 142.079 23.0788 142.336 22.5816 142.856C22.0619 143.373 21.8004 143.99 21.8004 144.713C21.8004 145.435 22.0554 146.052 22.5655 146.569C23.0723 147.086 23.6889 147.347 24.4152 147.347C25.1416 147.347 25.7614 147.086 26.2812 146.569C26.8009 146.052 27.0624 145.432 27.0624 144.713C27.0624 143.993 26.8009 143.373 26.2812 142.856Z" fill="white"/>
<path id="Vector_2" d="M29.2124 127.744V132.928C29.2124 135.019 28.5926 136.738 27.3465 138.077C26.1036 139.416 24.4734 140.084 22.4589 140.084H21.1353C20.2992 140.084 19.5761 139.805 18.9627 139.243C18.6916 141.787 17.6747 143.868 15.9088 145.49C14.143 147.109 12.0511 147.922 9.62987 147.922C7.0279 147.922 4.81655 146.98 2.99582 145.101C1.17508 143.219 0.26149 140.875 0.26149 138.061V127.976C0.26149 127.205 0.890998 126.578 1.66578 126.578H3.50911C4.28389 126.578 4.9134 127.205 4.9134 127.976V138.061C4.9134 139.815 5.48802 141.193 6.64374 142.201C7.46371 142.921 8.55486 143.296 9.64923 143.293C10.9986 143.29 12.1253 142.805 13.026 141.841C13.9299 140.875 14.3818 139.612 14.3818 138.061V118.369C14.3818 117.598 15.0114 116.972 15.7861 116.972H17.6295C18.4042 116.972 19.0305 117.598 19.0305 118.369V132.928C19.0305 133.715 19.2113 134.335 19.5761 134.785C19.9377 135.234 20.4574 135.459 21.1353 135.459H22.4589C23.1369 135.459 23.6534 135.234 24.0053 134.785C24.3539 134.335 24.5282 133.715 24.5282 132.928V127.744C24.5282 126.973 25.1577 126.35 25.9325 126.35H27.8114C28.5861 126.35 29.2124 126.973 29.2124 127.744Z" fill="white"/>
<path id="Vector_3" d="M47.7781 117.794C47.2583 117.277 46.6353 117.016 45.9121 117.016C45.189 117.016 44.566 117.277 44.0462 117.794C43.5232 118.311 43.265 118.931 43.265 119.65C43.265 120.37 43.5232 120.99 44.0462 121.51C44.566 122.027 45.1858 122.284 45.9121 122.284C46.6385 122.284 47.2583 122.027 47.7781 121.51C48.2978 120.99 48.5593 120.373 48.5593 119.65C48.5593 118.928 48.2978 118.311 47.7781 117.794Z" fill="white"/>
<path id="Vector_4" d="M86.9755 118.369V132.928C86.9755 135.019 86.3556 136.738 85.1095 138.077C83.8667 139.416 82.2364 140.084 80.222 140.084H79.105C77.1358 140.084 75.6411 139.365 74.6242 137.926C73.4911 139.365 71.9544 140.084 70.0078 140.084C68.0612 140.084 66.4115 139.32 65.3236 137.788C64.2163 139.32 62.6442 140.084 60.6071 140.084C58.5701 140.084 57.0787 139.365 55.9907 137.926C54.9738 139.365 53.4792 140.084 51.5099 140.084H50.2896C48.4108 140.084 46.942 139.4 45.8766 138.026C44.8597 139.4 43.4006 140.084 41.4991 140.084H40.2433C38.2515 140.084 36.6342 139.416 35.3913 138.077C34.1452 136.738 33.5221 135.019 33.5221 132.928V118.369C33.5221 117.598 34.1516 116.971 34.9264 116.971H36.7697C37.5445 116.971 38.174 117.598 38.174 118.369V132.928C38.174 133.715 38.3548 134.335 38.7164 134.785C39.0779 135.234 39.588 135.459 40.2433 135.459H41.4991C42.1545 135.459 42.6645 135.234 43.0261 134.785C43.3877 134.335 43.5684 133.715 43.5684 132.928V127.744C43.5684 126.973 44.1979 126.35 44.9727 126.35H46.8161C47.5908 126.35 48.2203 126.973 48.2203 127.744V132.928C48.2203 133.715 48.4011 134.335 48.7627 134.785C49.1243 135.234 49.6343 135.459 50.2896 135.459H51.5099C52.1911 135.459 52.7108 135.234 53.0724 134.785C53.434 134.335 53.6147 133.715 53.6147 132.928V127.744C53.6147 126.973 54.2442 126.35 55.019 126.35H56.8624C57.6371 126.35 58.2667 126.973 58.2667 127.744V132.658C58.2667 133.535 58.4862 134.223 58.9252 134.717C59.3675 135.212 59.9292 135.459 60.6071 135.459C61.2851 135.459 61.85 135.212 62.3052 134.717C62.7571 134.223 62.9831 133.535 62.9831 132.658V127.744C62.9831 126.973 63.6094 126.35 64.3842 126.35H66.2307C67.0055 126.35 67.6318 126.973 67.6318 127.744V132.658C67.6318 133.535 67.8578 134.223 68.3097 134.717C68.7649 135.212 69.3299 135.459 70.0078 135.459C70.6857 135.459 71.2474 135.212 71.6865 134.717C72.1287 134.223 72.3515 133.535 72.3515 132.658V127.744C72.3515 126.973 72.9778 126.35 73.7526 126.35H75.5959C76.3707 126.35 77.0002 126.973 77.0002 127.744V132.928C77.0002 133.715 77.181 134.335 77.5425 134.785C77.9041 135.234 78.4238 135.459 79.105 135.459H80.222C80.9031 135.459 81.4164 135.234 81.7683 134.785C82.1169 134.335 82.2945 133.715 82.2945 132.928V118.369C82.2945 117.598 82.9208 116.971 83.6956 116.971H85.5744C86.3492 116.971 86.9755 117.598 86.9755 118.369Z" fill="white"/>
<path id="Vector_5" d="M95.1107 140.084H93.2673C92.4925 140.084 91.863 139.458 91.863 138.687V118.365C91.863 117.595 92.4925 116.968 93.2673 116.968H95.1107C95.8854 116.968 96.5149 117.595 96.5149 118.365V138.687C96.5149 139.458 95.8854 140.084 95.1107 140.084Z" fill="white"/>
<path id="Vector_6" d="M106.41 144.385C106.594 143.768 107.171 143.361 107.817 143.389C107.895 143.393 107.972 143.396 108.053 143.396C109.16 143.396 109.964 143.088 110.461 142.468C110.958 141.848 111.207 140.887 111.207 139.58V127.735C111.207 126.967 111.83 126.344 112.598 126.337L114.441 126.325C115.219 126.318 115.855 126.944 115.855 127.722V139.58C115.855 142.304 115.165 144.379 113.786 145.811C112.404 147.241 110.529 147.957 108.153 147.957C107.785 147.957 107.43 147.938 107.084 147.899C106.216 147.803 105.651 146.945 105.896 146.11L106.406 144.385H106.41ZM110.835 119.888C110.835 119.168 111.094 118.555 111.617 118.047C112.136 117.54 112.759 117.286 113.483 117.286C114.206 117.286 114.829 117.54 115.349 118.047C115.868 118.555 116.13 119.168 116.13 119.888C116.13 120.607 115.868 121.227 115.349 121.744C114.829 122.262 114.206 122.522 113.483 122.522C112.759 122.522 112.136 122.262 111.617 121.744C111.097 121.227 110.835 120.607 110.835 119.888Z" fill="white"/>
<path id="Vector_7" d="M144.571 136.856V138.69C144.571 139.461 143.944 140.084 143.17 140.084H126.754C124.762 140.084 123.145 139.416 121.899 138.077C120.656 136.738 120.033 135.019 120.033 132.928V118.369C120.033 117.598 120.662 116.971 121.437 116.971H123.28C124.055 116.971 124.681 117.598 124.681 118.369V132.928C124.681 133.715 124.862 134.335 125.227 134.785C125.589 135.234 126.095 135.459 126.754 135.459H131.267C129.931 134.245 129.266 132.713 129.266 130.866C129.266 128.618 130.024 126.777 131.538 125.345C133.055 123.916 134.999 123.203 137.375 123.203C139.322 123.203 141.032 123.726 142.508 124.77C143.124 125.207 143.25 126.071 142.821 126.687L141.843 128.094C141.439 128.676 140.645 128.888 140.029 128.531C139.225 128.062 138.408 127.828 137.581 127.828C136.516 127.828 135.612 128.178 134.867 128.875C134.118 129.572 133.743 130.452 133.743 131.509C133.743 132.565 134.124 133.49 134.883 134.277C135.638 135.067 136.539 135.459 137.581 135.459H143.17C143.944 135.459 144.571 136.086 144.571 136.856Z" fill="white"/>
<path id="Vector_8" d="M139.276 117.794C138.757 117.277 138.134 117.016 137.41 117.016C136.687 117.016 136.071 117.277 135.561 117.794C135.051 118.311 134.796 118.931 134.796 119.65C134.796 120.37 135.051 120.99 135.561 121.51C136.071 122.027 136.687 122.284 137.41 122.284C138.134 122.284 138.757 122.027 139.276 121.51C139.796 120.99 140.058 120.373 140.058 119.65C140.058 118.928 139.796 118.311 139.276 117.794Z" fill="white"/>
</g>
<g id="Group_2">
<path id="Vector_9" d="M0.384162 169.133L1.30098 168.201C1.69483 167.803 2.32434 167.761 2.76984 168.102C3.94169 169.001 5.21362 169.454 6.5824 169.454C7.46694 169.454 8.17392 169.265 8.70336 168.886C9.23279 168.507 9.49751 167.989 9.49751 167.334C9.49751 166.865 9.30058 166.406 8.96484 166.078C8.61942 165.738 8.16747 165.452 7.60898 165.224C7.04404 164.99 6.43067 164.768 5.76242 164.55C5.09418 164.334 4.4227 164.074 3.74477 163.772C3.06684 163.47 2.44701 163.12 1.8853 162.725C1.32358 162.33 0.86517 161.787 0.519748 161.106C0.171097 160.425 0 159.635 0 158.739C0 157.152 0.577856 155.861 1.73034 154.869C2.88283 153.876 4.43238 153.382 6.37579 153.382C7.53796 153.382 8.69044 153.632 9.83647 154.133C10.6145 154.474 11.3182 154.939 11.9445 155.527C12.4255 155.98 12.3642 156.764 11.8477 157.175L10.8534 157.965C10.4305 158.302 9.84616 158.264 9.42326 157.927C9.14563 157.705 8.83572 157.515 8.48384 157.355C7.82527 157.053 7.16671 156.892 6.50492 156.876C5.68817 156.876 5.02961 157.05 4.526 157.393C4.0224 157.74 3.77059 158.171 3.77059 158.688C3.77059 159.17 4.00626 159.59 4.47435 159.944C4.94245 160.297 5.52999 160.576 6.23052 160.785C6.93428 160.994 7.69614 161.257 8.51935 161.575C9.34255 161.893 10.1044 162.25 10.8082 162.635C11.5119 163.021 12.0962 163.602 12.5643 164.37C13.0324 165.137 13.2681 166.049 13.2681 167.1C13.2681 168.86 12.6612 170.28 11.4474 171.359C10.2335 172.438 8.63879 172.978 6.65988 172.978H6.55657C4.15798 172.978 2.11773 172.236 0.439042 170.749C-0.038739 170.328 -0.0613367 169.589 0.384162 169.133Z" fill="white"/>
<path id="Vector_10" d="M16.1057 171.503V155.296C16.1057 154.422 16.8159 153.716 17.694 153.716H19.1822C19.702 153.716 20.1862 153.966 20.4832 154.39L28.4667 165.728V154.824C28.4667 154.21 28.9671 153.716 29.5804 153.716H31.2527C31.8693 153.716 32.3664 154.214 32.3664 154.824V171.031C32.3664 171.905 31.6562 172.611 30.7781 172.611H29.2931C28.7734 172.611 28.2891 172.361 27.9921 171.937L20.0087 160.573V171.503C20.0087 172.117 19.5083 172.611 18.8949 172.611H17.2195C16.6029 172.611 16.1057 172.114 16.1057 171.503Z" fill="white"/>
<path id="Vector_11" d="M41.6928 153.716H44.1431C44.6628 153.716 45.1245 154.043 45.2956 154.535L51.0354 171.147C51.284 171.866 50.7481 172.615 49.983 172.615H48.088C47.6038 172.615 47.1744 172.303 47.0259 171.847L46.0251 168.76H39.8592L38.8358 171.853C38.6841 172.309 38.258 172.615 37.777 172.615H35.8529C35.0878 172.615 34.5519 171.866 34.8005 171.147L40.5403 154.535C40.7082 154.047 41.1731 153.716 41.6928 153.716ZM44.934 165.157L42.9292 158.996L40.9245 165.157H44.9308H44.934Z" fill="white"/>
<path id="Vector_12" d="M53.4662 154.949C53.4662 154.268 54.0215 153.716 54.7059 153.716H60.4909C62.2761 153.716 63.7482 154.169 64.9007 155.074C66.0532 155.98 66.631 157.185 66.631 158.685C66.631 160.184 65.9789 161.489 64.6779 162.439C65.598 162.838 66.3244 163.429 66.8635 164.212C67.4026 164.999 67.6705 165.924 67.6705 166.994C67.6705 168.635 67.0733 169.981 65.8756 171.031C64.6779 172.085 63.1348 172.611 61.2431 172.611H54.7027C54.0183 172.611 53.463 172.059 53.463 171.378V154.949H53.4662ZM57.3692 161.196L60.6717 161.171C61.3141 161.135 61.8306 160.943 62.2213 160.589C62.6119 160.236 62.8056 159.793 62.8056 159.256C62.8056 158.668 62.5925 158.187 62.1664 157.804C61.7402 157.425 61.1559 157.236 60.4102 157.236H57.366V161.196H57.3692ZM57.3692 168.886H61.1172C61.9146 168.886 62.5376 168.686 62.9896 168.291C63.4415 167.896 63.6675 167.37 63.6675 166.714C63.6675 166.059 63.4351 165.532 62.9637 165.134C62.4956 164.739 61.9146 164.54 61.2205 164.54H57.3692V168.889V168.886Z" fill="white"/>
<path id="Vector_13" d="M81.6747 172.611H71.7091C70.9182 172.611 70.2757 171.972 70.2757 171.185V154.824C70.2757 154.21 70.7761 153.716 71.3895 153.716H73.0649C73.6815 153.716 74.1787 154.214 74.1787 154.824V168.731H81.6747C82.2913 168.731 82.7884 169.229 82.7884 169.84V171.503C82.7884 172.117 82.2881 172.611 81.6747 172.611Z" fill="white"/>
<path id="Vector_14" d="M94.1874 156.253C96.0953 154.336 98.4099 153.378 101.135 153.378C102.697 153.378 104.156 153.719 105.519 154.4C106.458 154.869 107.291 155.46 108.017 156.17C108.53 156.671 108.401 157.528 107.785 157.894L106.19 158.842C105.783 159.083 105.26 159.047 104.905 158.736C103.846 157.804 102.59 157.339 101.131 157.339C99.5366 157.339 98.1613 157.907 97.0089 159.047C95.8531 160.188 95.2785 161.559 95.2785 163.162C95.2785 164.765 95.8499 166.162 96.9927 167.302C98.1613 168.465 99.8045 169.078 101.457 169.004C102.684 168.95 103.717 168.59 104.553 167.925C105.464 167.199 106.022 166.226 106.232 164.999H101.519C100.902 164.999 100.405 164.501 100.405 163.891V162.561C100.405 161.948 100.905 161.453 101.519 161.453H109.467C110.096 161.453 110.645 161.922 110.687 162.545C110.7 162.741 110.706 162.947 110.706 163.162C110.706 166.094 109.822 168.468 108.053 170.28C106.293 172.081 104.001 172.987 101.18 172.997C98.7779 173.006 96.4665 172.187 94.6813 170.591C92.4248 168.577 91.2981 166.098 91.2981 163.159C91.2981 160.467 92.2601 158.161 94.1874 156.247V156.253Z" fill="white"/>
<path id="Vector_15" d="M119.823 153.716H121.237C122.067 153.716 122.806 154.239 123.074 155.02L128.646 171.144C128.894 171.863 128.358 172.611 127.593 172.611H125.698C125.214 172.611 124.785 172.3 124.636 171.844L123.635 168.757H117.47L116.446 171.85C116.294 172.306 115.868 172.611 115.387 172.611H113.463C112.698 172.611 112.162 171.863 112.411 171.144L117.983 155.02C118.254 154.239 118.99 153.716 119.82 153.716H119.823ZM122.548 165.157L120.543 158.996L118.538 165.157H122.544H122.548Z" fill="white"/>
<path id="Vector_16" d="M143.886 172.611H131.874C130.989 172.611 130.273 171.898 130.273 171.018V169.371C130.273 169.004 130.399 168.651 130.631 168.368L139.486 157.493H131.651C131.035 157.493 130.537 156.995 130.537 156.385V154.824C130.537 154.21 131.038 153.716 131.651 153.716H143.141C144.025 153.716 144.742 154.429 144.742 155.309V156.957C144.742 157.323 144.616 157.676 144.383 157.962L135.532 168.812H143.889C144.506 168.812 145.003 169.31 145.003 169.92V171.506C145.003 172.12 144.503 172.615 143.889 172.615L143.886 172.611Z" fill="white"/>
</g>
<path id="Vector_17" d="M88.906 86.7666H56.094C55.2837 86.7666 54.5477 86.4389 54.0183 85.9122C53.4856 85.3822 53.1596 84.6531 53.1596 83.8469V79.1383C53.1596 78.8845 53.2629 78.6565 53.4275 78.4927C53.5921 78.3289 53.8246 78.2261 54.0764 78.2261H90.9268C91.0527 78.2261 91.1754 78.2518 91.2852 78.2967C91.6145 78.4348 91.8469 78.7593 91.8469 79.1383V83.8469C91.8469 84.6531 91.5176 85.3854 90.9882 85.9122C90.4555 86.4421 89.7227 86.7666 88.9124 86.7666H88.906Z" fill="white"/>
<g id="Group_3">
<path id="Vector_18" d="M71.2152 42.8533V50.9827L61.9469 44.8511V37.4124L71.2152 42.8533Z" fill="white"/>
<path id="Vector_19" d="M71.2152 54.0532V62.311L65.2397 58.354C63.1833 56.9889 61.9469 54.7117 61.9469 52.2449V47.9281L71.2152 54.0532Z" fill="white"/>
<path id="Vector_20" d="M83.0467 37.4124V44.8511L73.7848 50.9827V42.8533L83.0467 37.4124Z" fill="white"/>
<path id="Vector_21" d="M83.0467 47.9314V52.2482C83.0467 54.715 81.82 56.9922 79.7636 58.3573L73.7881 62.3143V54.0565L83.0467 47.9314Z" fill="white"/>
</g>
<path id="Vector_22" d="M86.2943 12.4462V2.6691C86.2943 1.19483 85.0934 0 83.6116 0H61.3884C59.9066 0 58.696 1.19483 58.696 2.6691V12.4526C54.2217 14.1067 51.058 18.1602 51.058 22.9009V66.933C51.058 71.4715 55.0287 75.1459 59.9324 75.1459H71.2152V65.3785L63.816 60.4835C61.0397 58.6399 59.3739 55.5629 59.3739 52.245V26.0229C59.3739 25.3163 59.9583 24.7446 60.6588 24.7446C61.3593 24.7446 61.9436 25.3163 61.9436 26.0229V34.4413L71.2119 39.8823V18.3978C71.2119 17.6912 71.7866 17.1195 72.4968 17.1195C73.207 17.1195 73.7816 17.6912 73.7816 18.3978V39.8855L83.0402 34.4445V26.0261C83.0402 25.3195 83.6245 24.7478 84.3251 24.7478C85.0256 24.7478 85.6099 25.3195 85.6099 26.0261V52.2482C85.6099 55.5661 83.9538 58.6463 81.1775 60.4867L73.7784 65.3817V75.1491H85.0611C89.9648 75.1491 93.9356 71.4715 93.9356 66.9362V22.9041C93.9356 18.1602 90.7719 14.1003 86.2879 12.4462H86.2943ZM81.7844 10.3134H74.1367V8.41842H74.3175C74.7792 8.41842 75.1504 8.04263 75.1504 7.58332V6.72253C75.1504 6.26323 74.7824 5.89386 74.3175 5.89386H70.6825C70.2209 5.89386 69.8496 6.26002 69.8496 6.72253V7.58332C69.8496 8.04263 70.2176 8.41842 70.6825 8.41842H70.8633V10.3134H63.2156V3.24082C63.2156 2.65946 63.6966 2.1841 64.2777 2.1841H80.7224C81.3067 2.1841 81.7844 2.66268 81.7844 3.24082V10.3134Z" fill="white"/>
<g id="Group_4">
<path id="Vector_23" d="M84.2444 102.303C80.9193 102.303 78.214 99.611 78.214 96.3027C78.214 92.9944 80.9193 90.3029 84.2444 90.3029C87.5695 90.3029 90.2715 92.9944 90.2715 96.3027C90.2715 99.611 87.5662 102.303 84.2444 102.303ZM84.2444 93.7171C82.811 93.7171 81.6456 94.8766 81.6456 96.3027C81.6456 97.7288 82.811 98.8883 84.2444 98.8883C85.6777 98.8883 86.8431 97.7288 86.8431 96.3027C86.8431 94.8766 85.6777 93.7171 84.2444 93.7171Z" fill="white"/>
<path id="Vector_24" d="M60.7556 102.303C57.4305 102.303 54.7253 99.611 54.7253 96.3027C54.7253 92.9944 57.4305 90.3029 60.7556 90.3029C64.0807 90.3029 66.786 92.9944 66.786 96.3027C66.786 99.611 64.0807 102.303 60.7556 102.303ZM60.7556 93.7171C59.3223 93.7171 58.1569 94.8766 58.1569 96.3027C58.1569 97.7288 59.3223 98.8883 60.7556 98.8883C62.189 98.8883 63.3544 97.7288 63.3544 96.3027C63.3544 94.8766 62.189 93.7171 60.7556 93.7171Z" fill="white"/>
</g>
<path id="Vector_25" d="M45.0018 38.1832H18.1202C17.4713 38.1832 16.9063 37.8267 16.6158 37.2967C16.4802 37.0526 16.406 36.7732 16.406 36.4777C16.406 36.089 16.5351 35.7325 16.7546 35.4434C17.0678 35.0355 17.5617 34.7689 18.1202 34.7689H45.0018C45.4441 34.7689 45.8476 34.9359 46.1543 35.209C46.4997 35.5205 46.7192 35.9734 46.7192 36.4744C46.7192 36.8952 46.5675 37.2806 46.3125 37.5761C45.9993 37.9455 45.528 38.18 45.005 38.18L45.0018 38.1832Z" fill="white"/>
<path id="Vector_26" d="M45.0018 59.2148H32.6925C32.2567 59.2148 31.8564 59.051 31.5561 58.7844C31.201 58.4729 30.9783 58.0168 30.9783 57.5093C30.9783 57.0371 31.1687 56.6132 31.4819 56.3016C31.795 55.99 32.2211 55.8005 32.6957 55.8005H45.005C45.4796 55.8005 45.9057 55.99 46.2188 56.3016C46.532 56.6132 46.7224 57.0371 46.7224 57.5093C46.7224 57.8979 46.5933 58.2544 46.3738 58.5435C46.0606 58.9514 45.5667 59.218 45.0082 59.218L45.0018 59.2148Z" fill="white"/>
<path id="Vector_27" d="M45.0018 48.699H25.6807C25.2385 48.699 24.8349 48.532 24.5315 48.259C24.1828 47.9474 23.9665 47.4945 23.9665 46.9935C23.9665 46.5727 24.1215 46.1841 24.3765 45.8886C24.6897 45.5224 25.1577 45.288 25.6807 45.288H45.0018C45.4763 45.288 45.9025 45.4775 46.2156 45.789C46.5288 46.1006 46.7192 46.5246 46.7192 46.9967C46.7192 47.2312 46.6708 47.456 46.5836 47.6616C46.3221 48.275 45.7152 48.7022 45.005 48.7022L45.0018 48.699Z" fill="white"/>
</g>
<defs>
<clipPath id="clip0_370_179">
<rect width="145" height="173" fill="white"/>
</clipPath>
</defs>
</svg>
