<svg width="106" height="110" viewBox="0 0 106 110" fill="none" xmlns="http://www.w3.org/2000/svg">
<path d="M17.4595 24.801V18.7445C17.4595 9.49702 24.9991 2.00029 34.2993 2.00029C43.5998 2.00029 51.1391 9.49702 51.1391 18.7445V24.801" stroke="#F5633F" stroke-width="4" stroke-miterlimit="10" stroke-linecap="round" stroke-linejoin="round"/>
<path d="M71.8632 103.535H15.3162V26.2263H80.1673V51.0657" stroke="#F5633F" stroke-width="4" stroke-miterlimit="10" stroke-linecap="round" stroke-linejoin="round"/>
<path d="M15.6748 103.535H10.1189C5.66428 103.535 2.05298 99.9311 2.05298 95.4855V26.2262H15.6748" stroke="#F5633F" stroke-width="4" stroke-miterlimit="10" stroke-linecap="round" stroke-linejoin="round"/>
<path d="M31.0818 39.4076V18.7443C31.0818 9.49676 38.6214 2.00004 47.9216 2.00004C57.2221 2.00004 64.7614 9.49676 64.7614 18.7443V39.4076" stroke="#F5633F" stroke-width="4" stroke-miterlimit="10" stroke-linecap="round" stroke-linejoin="round"/>
<path d="M98.7569 58.1723C92.2778 58.1723 86.6892 54.394 84.0892 48.9342H76.4693C73.8691 54.394 68.2807 58.1723 61.8014 58.1723C59.3888 58.1723 57.0994 57.6478 55.0413 56.7085V83.4023C55.0413 102.927 80.279 109.589 80.279 109.589C80.279 109.589 105.517 102.927 105.517 83.4023V56.7085C103.459 57.6478 101.17 58.1723 98.7569 58.1723Z" fill="#F2B709"/>
<path d="M74.7925 80.0218L79.4501 84.6531L88.7658 73.6091" stroke="#F5633F" stroke-width="4" stroke-miterlimit="10" stroke-linecap="round" stroke-linejoin="round"/>
</svg>
