<svg width="18" height="20" viewBox="0 0 18 20" fill="none" xmlns="http://www.w3.org/2000/svg">
<g id="shopping bag">
<path id="Rectangle 788" opacity="0.4" d="M2.02266 7.49094C2.34783 5.75671 3.86207 4.5 5.62652 4.5H12.3737C14.1382 4.5 15.6524 5.75671 15.9776 7.49094L17.3526 14.8243C17.7757 17.0808 16.0446 19.1667 13.7487 19.1667H4.25152C1.95568 19.1667 0.22456 17.0808 0.647657 14.8243L2.02266 7.49094Z" fill="#6D6F7C"/>
<path id="Rectangle 760 (Stroke)" fill-rule="evenodd" clip-rule="evenodd" d="M5.5625 3.58331C5.5625 1.68483 7.10152 0.145813 9 0.145813C10.8985 0.145813 12.4375 1.68483 12.4375 3.58331V6.33331C12.4375 6.71301 12.1297 7.02081 11.75 7.02081C11.3703 7.02081 11.0625 6.71301 11.0625 6.33331V3.58331C11.0625 2.44423 10.1391 1.52081 9 1.52081C7.86091 1.52081 6.9375 2.44423 6.9375 3.58331V6.33331C6.9375 6.71301 6.6297 7.02081 6.25 7.02081C5.8703 7.02081 5.5625 6.71301 5.5625 6.33331V3.58331Z" fill="#6D6F7C"/>
</g>
</svg>
