<svg width="79" height="80" viewBox="0 0 79 80" fill="none" xmlns="http://www.w3.org/2000/svg">
<g id="1" clip-path="url(#clip0_103_1357)">
<g id="Page-1">
<g id="confetti-(2)">
<path id="Path" d="M39.8207 33.1775C29.5075 22.8657 18.1991 17.4543 14.5613 21.0907C14.1622 21.5089 13.8684 22.016 13.7044 22.5703L13.6459 22.5118L10.1718 36.7488L6.71234 50.9432L2.61155 67.7508L0.015625 78.3953L15.3849 72.5795L34.9336 65.1829L50.5291 59.2818L50.5104 59.2632C51.0325 59.0967 51.5102 58.8143 51.9075 58.4369C55.5453 54.7992 50.1339 43.4907 39.8207 33.1775Z" fill="#DD1C4B"/>
<path id="Oval" d="M39.8206 33.1734C29.5078 22.8606 18.199 17.449 14.5617 21.0863C10.9244 24.7236 16.336 36.0324 26.6488 46.3452C36.9616 56.658 48.2704 62.0695 51.9077 58.4322C55.5449 54.795 50.1334 43.4862 39.8206 33.1734Z" fill="#D1E3EE"/>
<path id="Path_2" d="M49.1133 59.7422C47.2512 59.7748 45.4037 59.4082 43.6953 58.6671L30.9485 63.4904L11.3933 70.8803L0.907101 74.8481L0.015625 78.5031L15.3849 72.6872L34.9335 65.2906L49.2464 59.8753L49.1133 59.7422Z" fill="#B21D48"/>
<g id="Group">
<path id="Path_3" d="M65.2131 49.2308C65.0538 49.2303 64.8958 49.2018 64.7461 49.1469C57.9913 46.6164 50.6897 45.9069 43.5742 47.0899L38.8214 47.8816C38.0939 47.9854 37.42 47.4798 37.3162 46.7523C37.2159 46.0494 37.6851 45.3916 38.3823 45.2577L43.1364 44.4594C50.713 43.2005 58.4873 43.9554 65.6801 46.6482C66.3717 46.8966 66.7308 47.6587 66.4823 48.3503C66.2904 48.8845 65.7808 49.2381 65.2131 49.2308Z" fill="#FFBF41"/>
<path id="Path_4" d="M41.2627 41.2474C40.5279 41.2431 39.9357 40.6438 39.94 39.909C39.943 39.4017 40.234 38.9404 40.6906 38.7193L68.6324 25.4137C69.296 25.0977 70.09 25.3795 70.406 26.0431C70.722 26.7067 70.4403 27.5007 69.7767 27.8167L41.8349 41.1223C41.6559 41.206 41.4605 41.2487 41.2627 41.2474Z" fill="#FFBF41"/>
<path id="Path_5" d="M25.7032 38.5863C25.5277 38.5866 25.3539 38.5519 25.1923 38.4838C24.514 38.2009 24.1935 37.4219 24.4764 36.7436V36.7435L26.4111 32.1011C29.3877 24.9884 30.0818 17.1268 28.3976 9.60266C28.225 8.88832 28.6642 8.16948 29.3784 7.99684C30.0927 7.8242 30.8116 8.26345 30.9842 8.97763C30.988 8.99343 30.9915 9.00923 30.9949 9.0252C32.7991 17.0852 32.0551 25.5067 28.866 33.1257L26.93 37.768C26.7234 38.2631 26.2398 38.5858 25.7032 38.5863Z" fill="#FFBF41"/>
</g>
<path id="Oval_2" d="M71.8657 54.553C73.3354 54.553 74.5268 53.3616 74.5268 51.8919C74.5268 50.4222 73.3354 49.2308 71.8657 49.2308C70.396 49.2308 69.2046 50.4222 69.2046 51.8919C69.2046 53.3616 70.396 54.553 71.8657 54.553Z" fill="#D5557E"/>
<path id="Oval_3" d="M39.9326 17.2973C41.4023 17.2973 42.5937 16.1059 42.5937 14.6362C42.5937 13.1665 41.4023 11.9751 39.9326 11.9751C38.4629 11.9751 37.2715 13.1665 37.2715 14.6362C37.2715 16.1059 38.4629 17.2973 39.9326 17.2973Z" fill="#DD95C1"/>
<path id="Path_6" d="M27.9575 5.32225C26.4877 5.32225 25.2964 4.13089 25.2964 2.66112C25.2964 1.19135 26.4877 0 27.9575 0C29.4273 0 30.6186 1.19135 30.6186 2.66112C30.6186 4.13089 29.4273 5.32225 27.9575 5.32225Z" fill="#7FCCCB"/>
<g id="Group_2">
<path id="Path_7" d="M65.2134 10.6445C64.4786 10.6445 63.8828 10.0487 63.8828 9.31392V7.98336C63.8828 7.24856 64.4786 6.6528 65.2134 6.6528C65.9482 6.6528 66.5439 7.24856 66.5439 7.98336V9.31392C66.5439 10.0487 65.9483 10.6445 65.2134 10.6445Z" fill="#2276BB"/>
<path id="Path_8" d="M65.2134 3.99168C64.4786 3.99168 63.8828 3.39593 63.8828 2.66112V1.33056C63.8828 0.595759 64.4786 0 65.2134 0C65.9482 0 66.5439 0.595759 66.5439 1.33056V2.66112C66.5439 3.39593 65.9483 3.99168 65.2134 3.99168Z" fill="#2276BB"/>
<path id="Path_9" d="M69.2051 6.65281H67.8745C67.1397 6.65281 66.5439 6.05705 66.5439 5.32225C66.5439 4.58744 67.1397 3.99168 67.8745 3.99168H69.2051C69.9399 3.99168 70.5356 4.58744 70.5356 5.32225C70.5356 6.05705 69.94 6.65281 69.2051 6.65281Z" fill="#2276BB"/>
<path id="Path_10" d="M62.5522 6.65281H61.2217C60.4869 6.65281 59.8911 6.05705 59.8911 5.32225C59.8911 4.58744 60.4869 3.99168 61.2217 3.99168H62.5522C63.287 3.99168 63.8828 4.58744 63.8828 5.32225C63.8828 6.05705 63.2872 6.65281 62.5522 6.65281Z" fill="#2276BB"/>
</g>
<path id="Path_11" d="M10.5777 38.5863C10.4287 38.0168 10.2956 37.442 10.1719 36.8566L6.7124 51.051L6.97851 54.2962C7.55847 61.215 10.5306 67.7154 15.3837 72.6806L34.9336 65.2906C34.8272 65.2574 34.7167 65.2334 34.6103 65.1975C22.7558 60.7526 13.7956 50.8309 10.5777 38.5863Z" fill="white"/>
<path id="Path_12" d="M34.9336 65.2906C34.8272 65.2574 34.7167 65.2334 34.6103 65.1975C33.3296 64.7127 32.0752 64.1607 30.8528 63.5436L13.2441 70.2057C13.9117 71.0716 14.6264 71.9 15.385 72.6872L34.9336 65.2906Z" fill="#F6F6E7"/>
<path id="Path_13" d="M55.899 15.9388V22.6195H49.2183V15.9388H55.899Z" fill="#C9DA53"/>
<path id="Path_14" d="M31.9489 39.9168C31.2141 39.9167 30.6185 39.3208 30.6187 38.586C30.6188 38.2091 30.7787 37.85 31.0587 37.5977L44.3643 25.6226C44.92 25.1418 45.7603 25.2025 46.2411 25.7582C46.7086 26.2984 46.6661 27.1114 46.1446 27.5998L32.839 39.5749C32.5949 39.7949 32.2777 39.9167 31.9489 39.9168Z" fill="#FFBF41"/>
<g id="Group_3">
<path id="Path_15" d="M70.5352 34.5946C69.8003 34.5946 69.2046 33.9988 69.2046 33.264V31.9335C69.2046 31.1987 69.8003 30.6029 70.5352 30.6029C71.27 30.6029 71.8657 31.1987 71.8657 31.9335V33.264C71.8657 33.9988 71.2701 34.5946 70.5352 34.5946Z" fill="#FFDB43"/>
<path id="Path_16" d="M75.2403 32.6453C74.8872 32.6463 74.5484 32.5059 74.2996 32.2555L73.3589 31.3148C72.8484 30.7862 72.8629 29.9438 73.3915 29.4333C73.9071 28.9354 74.7245 28.9354 75.2403 29.4333L76.181 30.3741C76.7006 30.8938 76.7004 31.7362 76.1807 32.2558C75.9314 32.5051 75.5931 32.6453 75.2403 32.6453Z" fill="#FFDB43"/>
<path id="Path_17" d="M77.188 27.9418H75.8574C75.1226 27.9418 74.5269 27.346 74.5269 26.6112C74.5269 25.8764 75.1226 25.2807 75.8574 25.2807H77.188C77.9228 25.2807 78.5185 25.8764 78.5185 26.6112C78.5185 27.346 77.9229 27.9418 77.188 27.9418Z" fill="#FFDB43"/>
<path id="Path_18" d="M74.2995 24.179C73.5647 24.1788 72.9691 23.583 72.9692 22.8481C72.9692 22.4953 73.1094 22.157 73.3588 21.9077L74.2995 20.967C74.828 20.4564 75.6703 20.471 76.1809 20.9996C76.6788 21.5152 76.6788 22.3326 76.1809 22.8484L75.2402 23.7891C74.9907 24.0386 74.6524 24.179 74.2995 24.179Z" fill="#FFDB43"/>
<path id="Path_19" d="M70.5352 22.6196C69.8003 22.6196 69.2046 22.0238 69.2046 21.289V19.9584C69.2046 19.2236 69.8003 18.6279 70.5352 18.6279C71.27 18.6279 71.8657 19.2236 71.8657 19.9584V21.289C71.8657 22.0238 71.2701 22.6196 70.5352 22.6196Z" fill="#FFDB43"/>
<path id="Path_20" d="M66.7711 24.179C66.4181 24.179 66.0798 24.0386 65.8303 23.7891L64.8896 22.8484C64.3792 22.3198 64.3937 21.4774 64.9222 20.967C65.4378 20.469 66.2553 20.469 66.7711 20.967L67.7118 21.9077C68.2313 22.4275 68.2312 23.2699 67.7114 23.7894C67.4621 24.0388 67.1238 24.179 66.7711 24.179Z" fill="#FFDB43"/>
<path id="Path_21" d="M6.66843 1.33057L8.72415 5.49655L13.3212 6.1645L9.99484 9.40707L10.7799 13.9855L6.66843 11.8234L2.557 13.9855L3.34203 9.40707L0.015625 6.1645L4.61271 5.49655L6.66843 1.33057Z" fill="#FFDB43"/>
</g>
<path id="Shape" d="M78.0983 72.0712C77.4655 69.8284 76.0084 67.9079 74.0188 66.6944L73.4706 65.8721C70.3969 61.2755 65.5635 58.15 60.1105 57.2328C59.383 57.129 58.7091 57.6346 58.6053 58.3621C58.505 59.065 58.9742 59.7228 59.6714 59.8566C63.6045 60.5243 67.1889 62.5224 69.8249 65.5169C67.6087 65.9155 65.6704 67.2466 64.5027 69.1719C63.0697 71.7384 63.9886 74.9805 66.5551 76.4135C69.1215 77.8465 72.3636 76.9276 73.7966 74.3611C74.344 73.3045 74.6395 72.1354 74.6602 70.9455C76.0759 73.0018 76.1891 75.687 74.9516 77.8551C74.5767 78.4872 74.7851 79.3035 75.4171 79.6784C76.0491 80.0532 76.8654 79.8448 77.2403 79.2128C77.2523 79.1925 77.2637 79.1721 77.2747 79.1511C78.4835 76.9958 78.7801 74.4464 78.0983 72.0712ZM71.4761 73.0625C70.7659 74.3493 69.1472 74.8166 67.8605 74.1065C66.5737 73.3963 66.1063 71.7775 66.8165 70.4908C66.8205 70.4837 66.8245 70.4764 66.8285 70.4692C67.6137 69.1835 68.9381 68.3217 70.4316 68.1248C70.663 68.1184 70.892 68.1717 71.0969 68.2791C72.2199 68.9058 72.2798 71.6228 71.4761 73.0625Z" fill="#2BB3CE"/>
</g>
</g>
</g>
<defs>
<clipPath id="clip0_103_1357">
<rect width="78.6694" height="80" fill="white"/>
</clipPath>
</defs>
</svg>
