<svg width="20" height="20" viewBox="0 0 20 20" fill="none" xmlns="http://www.w3.org/2000/svg">
<g id="Group 13400">
<circle id="Ellipse 256" cx="10" cy="10" r="10" fill="#F55905"/>
<path id="Vector" fill-rule="evenodd" clip-rule="evenodd" d="M14.0319 7.22034C14.1018 7.29001 14.1572 7.37277 14.195 7.46389C14.2328 7.55501 14.2523 7.65269 14.2523 7.75134C14.2523 7.84999 14.2328 7.94767 14.195 8.03879C14.1572 8.12991 14.1018 8.21267 14.0319 8.28234L9.53195 12.7823C9.46228 12.8522 9.37952 12.9076 9.2884 12.9454C9.19728 12.9832 9.0996 13.0027 9.00095 13.0027C8.9023 13.0027 8.80461 12.9832 8.7135 12.9454C8.62238 12.9076 8.53962 12.8522 8.46995 12.7823L6.21995 10.5323C6.15022 10.4626 6.0949 10.3798 6.05716 10.2887C6.01942 10.1976 6 10.1 6 10.0013C6 9.90272 6.01942 9.80507 6.05716 9.71396C6.0949 9.62286 6.15022 9.54007 6.21995 9.47034C6.36078 9.32951 6.55178 9.25039 6.75095 9.25039C6.84956 9.25039 6.94721 9.26982 7.03832 9.30756C7.12943 9.34529 7.21222 9.40061 7.28195 9.47034L9.00095 11.1908L12.9699 7.22034C13.0396 7.1505 13.1224 7.09508 13.2135 7.05727C13.3046 7.01946 13.4023 7 13.5009 7C13.5996 7 13.6973 7.01946 13.7884 7.05727C13.8795 7.09508 13.9623 7.1505 14.0319 7.22034Z" fill="white"/>
</g>
</svg>
