<svg width="25" height="25" viewBox="0 0 25 25" fill="none" xmlns="http://www.w3.org/2000/svg">
<path d="M21.5 11.791C21.5 16.33 17.452 19.973 12.5 19.973C11.859 19.973 11.235 19.91 10.631 19.794" stroke="white" stroke-width="1.5" stroke-linecap="round" stroke-linejoin="round"/>
<path d="M7.099 18.326C4.92 16.836 3.5 14.474 3.5 11.791" stroke="white" stroke-width="1.5" stroke-linecap="round" stroke-linejoin="round"/>
<path d="M7.099 18.326C7.098 19.18 7.1 20.332 7.1 21.541" stroke="white" stroke-width="1.5" stroke-linecap="round" stroke-linejoin="round"/>
<path d="M3.5 11.791C3.5 7.25199 7.548 3.60999 12.5 3.60999C17.452 3.60999 21.5 7.25299 21.5 11.792" stroke="white" stroke-width="1.5" stroke-linecap="round" stroke-linejoin="round"/>
<path d="M10.63 19.79L7.1 21.54" stroke="white" stroke-width="1.5" stroke-linecap="round" stroke-linejoin="round"/>
<path d="M12.6768 11.8232C12.7744 11.9208 12.7744 12.0791 12.6768 12.1767C12.5792 12.2743 12.4209 12.2743 12.3232 12.1767C12.2256 12.0791 12.2256 11.9208 12.3232 11.8232C12.4209 11.7255 12.5792 11.7255 12.6768 11.8232" stroke="white" stroke-width="1.5" stroke-linecap="round" stroke-linejoin="round"/>
<path d="M16.6768 11.8232C16.7744 11.9208 16.7744 12.0791 16.6768 12.1767C16.5792 12.2743 16.4209 12.2743 16.3232 12.1767C16.2256 12.0791 16.2256 11.9208 16.3232 11.8232C16.4209 11.7255 16.5792 11.7255 16.6768 11.8232" stroke="white" stroke-width="1.5" stroke-linecap="round" stroke-linejoin="round"/>
<path d="M8.67678 11.8232C8.77441 11.9208 8.77441 12.0791 8.67678 12.1767C8.57915 12.2743 8.42086 12.2743 8.32323 12.1767C8.2256 12.0791 8.2256 11.9208 8.32323 11.8232C8.42086 11.7255 8.57915 11.7255 8.67678 11.8232" stroke="white" stroke-width="1.5" stroke-linecap="round" stroke-linejoin="round"/>
</svg>
