<svg width="14" height="16" viewBox="0 0 14 16" fill="none" xmlns="http://www.w3.org/2000/svg">
<g id="01 align center">
<path id="Vector" d="M13.6667 2.66667H10.3334V1.33333C10.3334 0.979711 10.1929 0.640573 9.94285 0.390524C9.6928 0.140476 9.35366 0 9.00004 0L5.00004 0C4.64642 0 4.30728 0.140476 4.05723 0.390524C3.80718 0.640573 3.66671 0.979711 3.66671 1.33333V2.66667H0.333374V4H1.66671V14C1.66671 14.5304 1.87742 15.0391 2.25249 15.4142C2.62757 15.7893 3.13627 16 3.66671 16H10.3334C10.8638 16 11.3725 15.7893 11.7476 15.4142C12.1227 15.0391 12.3334 14.5304 12.3334 14V4H13.6667V2.66667ZM5.00004 1.33333H9.00004V2.66667H5.00004V1.33333ZM11 14C11 14.1768 10.9298 14.3464 10.8048 14.4714C10.6798 14.5964 10.5102 14.6667 10.3334 14.6667H3.66671C3.4899 14.6667 3.32033 14.5964 3.1953 14.4714C3.07028 14.3464 3.00004 14.1768 3.00004 14V4H11V14Z" fill="#4B4D5C"/>
<path id="Vector_2" d="M6.33333 6.66626H5V11.9996H6.33333V6.66626Z" fill="#4B4D5C"/>
<path id="Vector_3" d="M9.00021 6.66626H7.66687V11.9996H9.00021V6.66626Z" fill="#4B4D5C"/>
</g>
</svg>
