<svg width="120" height="120" viewBox="0 0 120 120" fill="none" xmlns="http://www.w3.org/2000/svg">
<circle cx="60" cy="60" r="60" fill="#F5F5F5"/>
<path d="M80.5053 68.7437L46.234 71.1916C45.1365 71.27 44.1818 70.4472 44.0974 69.3501L42.1667 44.25H84.875L82.3506 66.9696C82.244 67.9287 81.4679 68.6749 80.5053 68.7437Z" fill="#F55905"/>
<path d="M36.125 33.625C34.7443 33.625 33.625 34.7443 33.625 36.125C33.625 37.5057 34.7443 38.625 36.125 38.625V33.625ZM41.5417 36.125L44.0343 35.9333C43.9341 34.6308 42.848 33.625 41.5417 33.625V36.125ZM46.234 71.1916L46.4122 73.6853H46.4122L46.234 71.1916ZM80.5053 68.7437L80.6834 71.2373H80.6834L80.5053 68.7437ZM82.3506 66.9696L79.8659 66.6935V66.6935L82.3506 66.9696ZM84.875 44.25L87.3597 44.5261C87.4382 43.8193 87.2121 43.1126 86.7378 42.5827C86.2636 42.0528 85.5861 41.75 84.875 41.75V44.25ZM44.0974 69.3501L41.6048 69.5418L44.0974 69.3501ZM36.125 38.625H41.5417V33.625H36.125V38.625ZM46.4122 73.6853L80.6834 71.2373L80.3272 66.25L46.0559 68.698L46.4122 73.6853ZM84.8353 67.2457L87.3597 44.5261L82.3903 43.9739L79.8659 66.6935L84.8353 67.2457ZM39.049 36.3167L39.674 44.4417L44.6593 44.0583L44.0343 35.9333L39.049 36.3167ZM39.674 44.4417L41.6048 69.5418L46.5901 69.1583L44.6593 44.0583L39.674 44.4417ZM84.875 41.75H42.1667V46.75H84.875V41.75ZM80.6834 71.2373C82.8491 71.0826 84.5955 69.4036 84.8353 67.2457L79.8659 66.6935C79.8925 66.4538 80.0866 66.2672 80.3272 66.25L80.6834 71.2373ZM46.0559 68.698C46.3303 68.6784 46.569 68.8841 46.5901 69.1583L41.6048 69.5418C41.7947 72.0102 43.9428 73.8616 46.4122 73.6853L46.0559 68.698Z" fill="#F55905"/>
<rect x="51.0208" y="83.5208" width="0.0270833" height="0.0270833" stroke="#F55905" stroke-width="10" stroke-linejoin="round"/>
<rect x="75.3958" y="83.5208" width="0.0270833" height="0.0270833" stroke="#F55905" stroke-width="10" stroke-linejoin="round"/>
<path d="M59.1458 57.7917H67.2708" stroke="#FFD7C2" stroke-width="5" stroke-linecap="round" stroke-linejoin="round"/>
</svg>
