<svg width="105" height="105" viewBox="0 0 105 105" fill="none" xmlns="http://www.w3.org/2000/svg">
<g clip-path="url(#clip0_1_2532)">
<path d="M33.779 70.2511L31.6021 46.4233H43.7962V70.2511H33.779Z" fill="#F2B709"/>
<path d="M53.4055 46.4234H63.4228V70.2512H53.4055V46.4234Z" fill="#F2B709"/>
<path d="M73.032 70.2511V46.4233H87.403L83.0492 70.2511H73.032Z" fill="#F2B709"/>
<path d="M27.7823 78.9836H85.5733C89.9958 78.9836 93.7416 75.6768 94.351 71.2337L98.8476 38.4543H17.3621L22.2524 74.1013C22.6363 76.9003 24.9961 78.9836 27.7823 78.9836Z" stroke="#F5633F" stroke-width="6" stroke-miterlimit="10" stroke-linecap="round" stroke-linejoin="round"/>
<path d="M15.4475 23.6681L12.7665 7.0904H2.05078" stroke="#F5633F" stroke-width="6" stroke-miterlimit="10" stroke-linecap="round" stroke-linejoin="round"/>
<path d="M88.0546 88.4467C88.0546 93.6729 83.8773 97.9098 78.7245 97.9098C73.5715 97.9098 69.3943 93.6729 69.3943 88.4467C69.3943 83.2205 73.5715 78.9835 78.7245 78.9835C83.8773 78.9835 88.0546 83.2205 88.0546 88.4467Z" stroke="#F5633F" stroke-width="6" stroke-miterlimit="10" stroke-linecap="round" stroke-linejoin="round"/>
<path d="M45.4369 88.4467C45.4369 93.6729 41.2596 97.9098 36.1068 97.9098C30.9538 97.9098 26.7766 93.6729 26.7766 88.4467C26.7766 83.2205 30.9538 78.9835 36.1068 78.9835C41.2596 78.9835 45.4369 83.2205 45.4369 88.4467Z" stroke="#F5633F" stroke-width="6" stroke-miterlimit="10" stroke-linecap="round" stroke-linejoin="round"/>
<path d="M15.4473 23.6681L17.3621 38.4542H102.949L102.911 23.6681H15.4473Z" stroke="#F5633F" stroke-width="6" stroke-miterlimit="10" stroke-linecap="round" stroke-linejoin="round"/>
</g>
<defs>
<clipPath id="clip0_1_2532">
<rect width="105" height="105" fill="white"/>
</clipPath>
</defs>
</svg>
