<svg width="26" height="26" viewBox="0 0 26 26" fill="none" xmlns="http://www.w3.org/2000/svg">
<g clip-path="url(#clip0_1_3697)">
<path d="M9.75947 6.51819L12.3522 3.92547C12.7102 3.56749 13.2906 3.56749 13.6486 3.92547L16.2413 6.51819C16.5993 6.87617 16.5993 7.45657 16.2413 7.81455L13.6486 10.4073C13.2906 10.7653 12.7102 10.7653 12.3522 10.4073L9.75947 7.81455C9.40149 7.45657 9.40149 6.87617 9.75947 6.51819Z" stroke="#AEAEAE" stroke-width="2" stroke-linecap="round" stroke-linejoin="round"/>
<path d="M15.5925 12.3519L18.1852 9.75921C18.5432 9.40123 19.1236 9.40123 19.4816 9.75921L22.0743 12.3519C22.4323 12.7099 22.4323 13.2903 22.0743 13.6483L19.4816 16.241C19.1236 16.599 18.5432 16.599 18.1852 16.241L15.5925 13.6483C15.2345 13.2903 15.2345 12.7099 15.5925 12.3519Z" stroke="#AEAEAE" stroke-width="2" stroke-linecap="round" stroke-linejoin="round"/>
<path d="M3.92597 12.3519L6.5187 9.75921C6.87668 9.40123 7.45708 9.40123 7.81506 9.75921L10.4078 12.3519C10.7658 12.7099 10.7658 13.2903 10.4078 13.6483L7.81506 16.241C7.45708 16.599 6.87668 16.599 6.5187 16.241L3.92597 13.6483C3.56799 13.2903 3.56799 12.7099 3.92597 12.3519Z" stroke="#AEAEAE" stroke-width="2" stroke-linecap="round" stroke-linejoin="round"/>
<path d="M9.75947 18.1854L12.3522 15.5927C12.7102 15.2347 13.2906 15.2347 13.6486 15.5927L16.2413 18.1854C16.5993 18.5434 16.5993 19.1238 16.2413 19.4818L13.6486 22.0745C13.2906 22.4325 12.7102 22.4325 12.3522 22.0745L9.75947 19.4818C9.40149 19.1238 9.40149 18.5434 9.75947 18.1854Z" stroke="#AEAEAE" stroke-width="2" stroke-linecap="round" stroke-linejoin="round"/>
</g>
<defs>
<clipPath id="clip0_1_3697">
<rect width="22" height="22" fill="white" transform="matrix(-1 0 0 1 24 2)"/>
</clipPath>
</defs>
</svg>
