<svg width="20" height="20" viewBox="0 0 20 20" fill="none" xmlns="http://www.w3.org/2000/svg">
<g id="Group">
<path id="Vector" d="M6.66766 17.5H2.8418C2.65375 17.4995 2.50141 17.3472 2.50098 17.1592V2.84082C2.50145 2.65277 2.65375 2.50043 2.8418 2.5H6.66762C7.35797 2.5 7.91762 1.94035 7.91762 1.25C7.91762 0.559648 7.35797 0 6.66762 0H2.8418C1.27363 0.00183594 0.0028125 1.27266 0.000976562 2.84082V17.1591C0.0028125 18.7273 1.27363 19.9982 2.8418 20H6.66762C7.35797 20 7.91762 19.4404 7.91762 18.75C7.91762 18.0596 7.35801 17.5 6.66766 17.5Z" fill="#EA4335"/>
<path id="Vector_2" d="M18.7506 8.75072L7.38388 8.77322L10.2722 5.8849C10.7605 5.39681 10.7607 4.60529 10.2726 4.11697C9.78455 3.62865 8.99302 3.62845 8.5047 4.11654L5.2722 7.34904C3.80771 8.81349 3.80771 11.1879 5.27216 12.6523L5.2722 12.6524L8.5047 15.8849C8.99302 16.3729 9.78455 16.3727 10.2726 15.8844C10.7607 15.3961 10.7605 14.6046 10.2722 14.1165L7.42802 11.2732L18.7506 11.2507C19.4409 11.2493 19.9994 10.6886 19.9981 9.99822C19.9967 9.30787 19.4359 8.74935 18.7456 8.75072H18.7506Z" fill="#EA4335"/>
</g>
</svg>
