<svg width="16" height="18" viewBox="0 0 16 18" fill="none" xmlns="http://www.w3.org/2000/svg">
<path d="M1.99038 12.9231L2.68269 13.2115L1.99038 12.9231ZM1.36538 14.4231L2.05769 14.7115L1.36538 14.4231ZM14.6346 14.4231L13.9423 14.7115V14.7115L14.6346 14.4231ZM14.0096 12.9231L14.7019 12.6346V12.6346L14.0096 12.9231ZM11 11.25C10.5858 11.25 10.25 11.5858 10.25 12C10.25 12.4142 10.5858 12.75 11 12.75V11.25ZM5 12.75C5.41421 12.75 5.75 12.4142 5.75 12C5.75 11.5858 5.41421 11.25 5 11.25V12.75ZM12.5 6.83333C12.5 8.06241 11.7946 9.56436 10.7837 10.7952C10.2874 11.3995 9.74477 11.904 9.23101 12.2511C8.70114 12.6091 8.27637 12.75 8 12.75V14.25C8.70801 14.25 9.43167 13.9258 10.0707 13.494C10.7259 13.0514 11.3727 12.4414 11.9429 11.7472C13.0648 10.3812 14 8.54977 14 6.83333H12.5ZM8 12.75C7.72363 12.75 7.29886 12.6091 6.76899 12.2511C6.25522 11.904 5.71258 11.3995 5.21631 10.7952C4.20542 9.56436 3.5 8.06241 3.5 6.83333H2C2 8.54977 2.93521 10.3812 4.05713 11.7472C4.62726 12.4414 5.27407 13.0514 5.92925 13.494C6.56833 13.9258 7.29199 14.25 8 14.25V12.75ZM3.5 6.83333C3.5 4.29085 5.52581 2.25 8 2.25V0.75C4.6752 0.75 2 3.48478 2 6.83333H3.5ZM8 2.25C10.4742 2.25 12.5 4.29085 12.5 6.83333H14C14 3.48478 11.3248 0.75 8 0.75V2.25ZM9.125 6.75C9.125 7.37132 8.62132 7.875 8 7.875V9.375C9.44975 9.375 10.625 8.19975 10.625 6.75H9.125ZM8 7.875C7.37868 7.875 6.875 7.37132 6.875 6.75H5.375C5.375 8.19975 6.55025 9.375 8 9.375V7.875ZM6.875 6.75C6.875 6.12868 7.37868 5.625 8 5.625V4.125C6.55025 4.125 5.375 5.30025 5.375 6.75H6.875ZM8 5.625C8.62132 5.625 9.125 6.12868 9.125 6.75H10.625C10.625 5.30025 9.44975 4.125 8 4.125V5.625ZM1.29808 12.6346L0.673076 14.1346L2.05769 14.7115L2.68269 13.2115L1.29808 12.6346ZM2.75 17.25H13.25V15.75H2.75V17.25ZM15.3269 14.1346L14.7019 12.6346L13.3173 13.2115L13.9423 14.7115L15.3269 14.1346ZM12.625 11.25H11V12.75H12.625V11.25ZM3.375 12.75H5V11.25H3.375V12.75ZM14.7019 12.6346C14.3526 11.7962 13.5333 11.25 12.625 11.25V12.75C12.9278 12.75 13.2009 12.9321 13.3173 13.2115L14.7019 12.6346ZM13.25 17.25C14.8555 17.25 15.9444 15.6167 15.3269 14.1346L13.9423 14.7115C14.1481 15.2056 13.7852 15.75 13.25 15.75V17.25ZM0.673076 14.1346C0.0555562 15.6167 1.14445 17.25 2.75 17.25V15.75C2.21481 15.75 1.85185 15.2056 2.05769 14.7115L0.673076 14.1346ZM2.68269 13.2115C2.79914 12.9321 3.07222 12.75 3.375 12.75V11.25C2.46667 11.25 1.64743 11.7962 1.29808 12.6346L2.68269 13.2115Z" fill="#4B4D5C"/>
</svg>
