<svg width="26" height="25" viewBox="0 0 26 25" fill="none" xmlns="http://www.w3.org/2000/svg">
<path d="M6.65134 16.4035C5.29235 15.0195 3.14226 13.4995 3.56243 11.2483C3.94321 9.21483 5.58778 8.21168 7.5245 8.66395C7.62954 8.68889 7.72146 8.66282 7.80024 8.58574C8.4852 7.92831 9.17236 7.26406 9.8617 6.59302C11.073 5.41644 11.9232 7.33094 11.004 8.21167C10.4657 8.72855 9.94267 9.26811 9.43496 9.83033C9.4005 9.86817 9.38158 9.91842 9.38219 9.97044C9.38281 10.0225 9.4029 10.0722 9.43824 10.1092L12.2252 12.9962C12.3193 13.0914 12.4123 13.0914 12.5042 12.9962L16.1249 9.35765C16.2168 9.2647 16.2168 9.17289 16.1249 9.08221C14.7954 7.78321 12.3532 5.72249 11.9133 3.98483C11.3618 1.80509 13.617 -0.429046 15.7539 0.183048C17.0801 0.563906 21.5411 5.19542 21.9449 6.55903C22.6802 9.05501 20.3397 11.0613 17.9828 10.5172C17.8778 10.4923 17.7891 10.5195 17.7169 10.5988L16.5779 11.8366C16.4838 11.9364 16.4848 12.0361 16.5811 12.1359L24.9156 20.7834C24.9755 20.8454 25.0156 20.9249 25.0305 21.0112C25.257 22.2864 24.1409 22.7727 23.3268 21.9328C20.7227 19.2554 18.0233 16.4625 15.2287 13.5539C15.1813 13.505 15.1173 13.4773 15.0505 13.4767C14.9836 13.4761 14.9192 13.5026 14.8709 13.5505L13.7122 14.7101C13.6465 14.7781 13.6224 14.8586 13.6399 14.9515C14.0634 17.2061 12.816 19.2124 10.5445 19.0763C8.77845 18.9743 8.25323 18.0392 6.65134 16.4035ZM15.7516 2.36765C15.6418 2.25397 15.5116 2.1638 15.3682 2.10228C15.2248 2.04075 15.0711 2.00908 14.9159 2.00908C14.7608 2.00908 14.6071 2.04075 14.4637 2.10228C14.3203 2.1638 14.1901 2.25397 14.0803 2.36765L14.0385 2.41092C13.9288 2.5246 13.8418 2.65957 13.7824 2.8081C13.723 2.95662 13.6924 3.11582 13.6924 3.27658C13.6924 3.43734 13.723 3.59652 13.7824 3.74504C13.8418 3.89357 13.9288 4.02854 14.0385 4.14221L18.0541 8.30204C18.1638 8.41572 18.2941 8.50589 18.4375 8.56742C18.5809 8.62894 18.7345 8.66059 18.8897 8.66059C19.0449 8.66059 19.1986 8.62894 19.3419 8.56742C19.4853 8.50589 19.6156 8.41572 19.7253 8.30204L19.7671 8.25875C19.8768 8.14507 19.9639 8.01012 20.0233 7.8616C20.0827 7.71307 20.1132 7.55388 20.1132 7.39311C20.1132 7.23235 20.0827 7.07315 20.0233 6.92463C19.9639 6.7761 19.8768 6.64115 19.7671 6.52748L15.7516 2.36765ZM11.5161 16.7392C11.7241 16.5236 11.841 16.2313 11.841 15.9264C11.841 15.6216 11.7241 15.3293 11.5161 15.1137L7.44014 10.8914C7.23207 10.6758 6.94986 10.5547 6.6556 10.5547C6.36135 10.5547 6.07914 10.6758 5.87107 10.8914L5.77823 10.9875C5.57016 11.2031 5.45327 11.4954 5.45327 11.8003C5.45327 12.1051 5.57016 12.3974 5.77823 12.613L9.85415 16.8353C10.0622 17.0509 10.3444 17.172 10.6387 17.172C10.9329 17.172 11.2151 17.0509 11.4232 16.8353L11.5161 16.7392Z" fill="#36474F"/>
<path d="M18.2783 22.1606H1.90478C1.37178 22.1606 0.939697 22.6082 0.939697 23.1604V23.2012C0.939697 23.7533 1.37178 24.2009 1.90478 24.2009H18.2783C18.8113 24.2009 19.2434 23.7533 19.2434 23.2012V23.1604C19.2434 22.6082 18.8113 22.1606 18.2783 22.1606Z" fill="#36474F"/>
</svg>
