<svg width="22" height="22" viewBox="0 0 22 22" fill="none" xmlns="http://www.w3.org/2000/svg">
<g id="Money">
<path id="Vector" d="M7.69995 9.90002C7.69995 9.31655 7.93174 8.75697 8.34432 8.34439C8.7569 7.93181 9.31647 7.70002 9.89995 7.70002C10.4834 7.70002 11.043 7.93181 11.4556 8.34439C11.8682 8.75697 12.1 9.31655 12.1 9.90002C12.1 10.4835 11.8682 11.0431 11.4556 11.4557C11.043 11.8682 10.4834 12.1 9.89995 12.1C9.31647 12.1 8.7569 11.8682 8.34432 11.4557C7.93174 11.0431 7.69995 10.4835 7.69995 9.90002ZM9.89995 8.80002C9.60821 8.80002 9.32842 8.91592 9.12213 9.12221C8.91584 9.3285 8.79995 9.60829 8.79995 9.90002C8.79995 10.1918 8.91584 10.4716 9.12213 10.6778C9.32842 10.8841 9.60821 11 9.89995 11C10.1917 11 10.4715 10.8841 10.6778 10.6778C10.8841 10.4716 11 10.1918 11 9.90002C11 9.60829 10.8841 9.3285 10.6778 9.12221C10.4715 8.91592 10.1917 8.80002 9.89995 8.80002ZM3.84995 4.40002C3.41234 4.40002 2.99266 4.57386 2.68323 4.8833C2.37379 5.19273 2.19995 5.61242 2.19995 6.05002V13.75C2.19995 14.1876 2.37379 14.6073 2.68323 14.9168C2.99266 15.2262 3.41234 15.4 3.84995 15.4H15.95C16.3876 15.4 16.8072 15.2262 17.1167 14.9168C17.4261 14.6073 17.6 14.1876 17.6 13.75V6.05002C17.6 5.61242 17.4261 5.19273 17.1167 4.8833C16.8072 4.57386 16.3876 4.40002 15.95 4.40002H3.84995ZM3.29995 6.05002C3.29995 5.90416 3.3579 5.76426 3.46104 5.66112C3.56419 5.55797 3.70408 5.50002 3.84995 5.50002H5.49995V6.60002C5.49995 6.89176 5.38406 7.17155 5.17777 7.37784C4.97148 7.58413 4.69169 7.70002 4.39995 7.70002H3.29995V6.05002ZM3.29995 8.80002H4.39995C4.98343 8.80002 5.54301 8.56824 5.95559 8.15566C6.36817 7.74308 6.59995 7.1835 6.59995 6.60002V5.50002H13.2V6.60002C13.2 7.1835 13.4317 7.74308 13.8443 8.15566C14.2569 8.56824 14.8165 8.80002 15.4 8.80002H16.5V11H15.4C14.8165 11 14.2569 11.2318 13.8443 11.6444C13.4317 12.057 13.2 12.6165 13.2 13.2V14.3H6.59995V13.2C6.59995 12.6165 6.36817 12.057 5.95559 11.6444C5.54301 11.2318 4.98343 11 4.39995 11H3.29995V8.80002ZM14.3 5.50002H15.95C16.0958 5.50002 16.2357 5.55797 16.3389 5.66112C16.442 5.76426 16.5 5.90416 16.5 6.05002V7.70002H15.4C15.1082 7.70002 14.8284 7.58413 14.6221 7.37784C14.4158 7.17155 14.3 6.89176 14.3 6.60002V5.50002ZM16.5 12.1V13.75C16.5 13.8959 16.442 14.0358 16.3389 14.1389C16.2357 14.2421 16.0958 14.3 15.95 14.3H14.3V13.2C14.3 12.9083 14.4158 12.6285 14.6221 12.4222C14.8284 12.2159 15.1082 12.1 15.4 12.1H16.5ZM5.49995 14.3H3.84995C3.70408 14.3 3.56419 14.2421 3.46104 14.1389C3.3579 14.0358 3.29995 13.8959 3.29995 13.75V12.1H4.39995C4.69169 12.1 4.97148 12.2159 5.17777 12.4222C5.38406 12.6285 5.49995 12.9083 5.49995 13.2V14.3ZM18.7 13.75C18.7 14.4794 18.4102 15.1788 17.8945 15.6946C17.3788 16.2103 16.6793 16.5 15.95 16.5H4.49345C4.60724 16.8219 4.81804 17.1005 5.09681 17.2975C5.37558 17.4945 5.70859 17.6002 6.04995 17.6H15.95C16.971 17.6 17.9503 17.1944 18.6723 16.4724C19.3943 15.7504 19.8 14.7711 19.8 13.75V8.25002C19.8001 7.90867 19.6944 7.57565 19.4974 7.29688C19.3004 7.01811 19.0218 6.80731 18.7 6.69352V13.75Z" fill="#4B4D5C"/>
</g>
</svg>
