<svg width="14" height="15" viewBox="0 0 14 15" fill="none" xmlns="http://www.w3.org/2000/svg">
<g id="Tag">
<path id="Vector" fill-rule="evenodd" clip-rule="evenodd" d="M1.16669 3.41666C1.16669 2.95253 1.35106 2.50741 1.67925 2.17922C2.00744 1.85103 2.45256 1.66666 2.91669 1.66666H6.51702C6.98091 1.66691 7.42572 1.85134 7.75369 2.17941L12.4204 6.84607C12.7484 7.17425 12.9327 7.61929 12.9327 8.08332C12.9327 8.54736 12.7484 8.9924 12.4204 9.32057L8.82119 12.9209C8.65868 13.0834 8.46575 13.2124 8.25341 13.3003C8.04107 13.3883 7.81348 13.4336 7.58364 13.4336C7.35381 13.4336 7.12622 13.3883 6.91388 13.3003C6.70154 13.2124 6.50861 13.0834 6.3461 12.9209L1.67944 8.25424C1.35123 7.92613 1.16679 7.48108 1.16669 7.01699V3.41666ZM4.08335 3.99999C3.92864 3.99999 3.78027 4.06145 3.67087 4.17084C3.56148 4.28024 3.50002 4.42861 3.50002 4.58332C3.50002 4.73803 3.56148 4.88641 3.67087 4.9958C3.78027 5.1052 3.92864 5.16666 4.08335 5.16666H4.08394C4.23865 5.16666 4.38702 5.1052 4.49642 4.9958C4.60581 4.88641 4.66727 4.73803 4.66727 4.58332C4.66727 4.42861 4.60581 4.28024 4.49642 4.17084C4.38702 4.06145 4.23865 3.99999 4.08394 3.99999H4.08335Z" fill="#F90067"/>
</g>
</svg>
