<svg width="25" height="24" viewBox="0 0 25 24" fill="none" xmlns="http://www.w3.org/2000/svg">
<g id="copy 1" clip-path="url(#clip0_35_808)">
<path id="Vector" d="M18.5352 8H10.5352C9.43059 8 8.53516 8.89543 8.53516 10V18C8.53516 19.1046 9.43059 20 10.5352 20H18.5352C19.6397 20 20.5352 19.1046 20.5352 18V10C20.5352 8.89543 19.6397 8 18.5352 8Z" stroke="white" stroke-width="1.3" stroke-linecap="round" stroke-linejoin="round"/>
<path id="Vector_2" d="M16.5352 8V6C16.5352 5.46957 16.3244 4.96086 15.9494 4.58579C15.5743 4.21071 15.0656 4 14.5352 4H6.53516C6.00472 4 5.49602 4.21071 5.12094 4.58579C4.74587 4.96086 4.53516 5.46957 4.53516 6V14C4.53516 14.5304 4.74587 15.0391 5.12094 15.4142C5.49602 15.7893 6.00472 16 6.53516 16H8.53516" stroke="white" stroke-width="1.3" stroke-linecap="round" stroke-linejoin="round"/>
</g>
<defs>
<clipPath id="clip0_35_808">
<rect width="24" height="24" fill="white" transform="translate(0.535156)"/>
</clipPath>
</defs>
</svg>
