<svg width="14" height="13" viewBox="0 0 14 13" fill="none" xmlns="http://www.w3.org/2000/svg">
<path d="M5.51777 2.21852C5.51777 2.80691 5.28329 3.3712 4.86592 3.78725C4.44854 4.20331 3.88246 4.43705 3.29221 4.43705C2.70195 4.43705 2.13587 4.20331 1.7185 3.78725C1.30113 3.3712 1.06665 2.80691 1.06665 2.21852C1.06665 1.63013 1.30113 1.06584 1.7185 0.649788C2.13587 0.233735 2.70195 0 3.29221 0C3.88246 0 4.44854 0.233735 4.86592 0.649788C5.28329 1.06584 5.51777 1.63013 5.51777 2.21852ZM4.41334 2.24813C4.41334 2.10137 4.38434 1.95604 4.328 1.82045C4.27166 1.68486 4.18908 1.56165 4.08497 1.45788C3.98086 1.3541 3.85727 1.27177 3.72125 1.21561C3.58522 1.15945 3.43944 1.13054 3.29221 1.13054C3.14498 1.13054 2.99919 1.15945 2.86317 1.21561C2.72715 1.27177 2.60356 1.3541 2.49945 1.45788C2.39534 1.56165 2.31276 1.68486 2.25642 1.82045C2.20007 1.95604 2.17108 2.10137 2.17108 2.24813C2.17108 2.54453 2.2892 2.8288 2.49945 3.03839C2.7097 3.24798 2.99487 3.36572 3.29221 3.36572C3.58955 3.36572 3.87472 3.24798 4.08497 3.03839C4.29522 2.8288 4.41334 2.54453 4.41334 2.24813Z" fill="#36474F"/>
<path d="M12.9499 2.22223C12.9499 2.81111 12.7153 3.37588 12.2976 3.79228C11.8798 4.20868 11.3133 4.44261 10.7225 4.44261C10.1318 4.44261 9.56524 4.20868 9.14752 3.79228C8.72979 3.37588 8.49512 2.81111 8.49512 2.22223C8.49512 1.63336 8.72979 1.06859 9.14752 0.652192C9.56524 0.235791 10.1318 0.00186157 10.7225 0.00186157C11.3133 0.00186157 11.8798 0.235791 12.2976 0.652192C12.7153 1.06859 12.9499 1.63336 12.9499 2.22223ZM11.84 2.25183C11.84 1.95592 11.722 1.67213 11.5121 1.46289C11.3022 1.25365 11.0175 1.1361 10.7207 1.1361C10.4238 1.1361 10.1391 1.25365 9.92923 1.46289C9.71933 1.67213 9.6014 1.95592 9.6014 2.25183C9.6014 2.54775 9.71933 2.83154 9.92923 3.04078C10.1391 3.25002 10.4238 3.36758 10.7207 3.36758C11.0175 3.36758 11.3022 3.25002 11.5121 3.04078C11.722 2.83154 11.84 2.54775 11.84 2.25183Z" fill="#36474F"/>
<path d="M6.58685 4.26682L7.5335 4.32048C9.2152 4.85337 9.90756 7.03303 8.49129 8.16913C5.69032 10.4191 2.81509 5.46952 6.58685 4.26682ZM8.1182 6.50939C8.1182 6.21348 8.00028 5.92969 7.79037 5.72045C7.58047 5.5112 7.29577 5.39366 6.99892 5.39366C6.70207 5.39366 6.41738 5.5112 6.20747 5.72045C5.99757 5.92969 5.87965 6.21348 5.87965 6.50939C5.87965 6.8053 5.99757 7.0891 6.20747 7.29834C6.41738 7.50758 6.70207 7.62513 6.99892 7.62513C7.29577 7.62513 7.58047 7.50758 7.79037 7.29834C8.00028 7.0891 8.1182 6.8053 8.1182 6.50939Z" fill="#36474F"/>
<path d="M0.916289 7.46044C0.36686 7.94338 -0.373758 7.09224 0.218363 6.58525C1.03632 5.8846 1.97864 5.5059 3.04533 5.44916C3.5465 5.4214 4.01054 5.7156 3.7414 6.25589C3.56877 6.5982 3.02677 6.53899 2.78361 6.5908C2.1061 6.73697 1.43973 6.99787 0.916289 7.46044Z" fill="#36474F"/>
<path d="M13.9968 6.92203C14.029 7.34266 13.8193 7.56223 13.3676 7.58074C13.3087 7.58312 13.2511 7.56549 13.2043 7.53077C12.2799 6.84246 11.7045 6.64447 10.5629 6.50755C10.5023 6.50015 10.4522 6.47302 10.4126 6.42614C10.1267 6.09062 10.1428 5.7847 10.4608 5.50839C10.5091 5.46521 10.566 5.44362 10.6316 5.44362C11.9037 5.43375 12.9945 5.86179 13.904 6.72773C13.9579 6.77892 13.9909 6.84809 13.9968 6.92203Z" fill="#36474F"/>
<path d="M4.9777 11.4367C4.62317 11.6458 3.69693 13.1464 3.26815 12.1917C2.95632 11.496 4.29462 10.5856 4.76052 10.3062C6.84687 9.0554 9.35086 9.81772 10.7894 11.6773C11.1681 12.1676 10.3328 12.9225 9.79077 12.1787C8.64737 10.6115 6.51833 10.5208 4.9777 11.4367Z" fill="#36474F"/>
</svg>
