<svg width="20" height="20" viewBox="0 0 20 20" fill="none" xmlns="http://www.w3.org/2000/svg">
<g id="fi-br-comment-info" clip-path="url(#clip0_195_244)">
<path id="Vector" d="M15.4167 20.0001H10.8617C9.30072 20.0274 7.75117 19.7294 6.31161 19.1253C4.87205 18.5212 3.57399 17.624 2.50001 16.4909C1.59127 15.4974 0.90272 14.3232 0.479496 13.045C0.0562724 11.7669 -0.0920764 10.4137 0.0441724 9.07424C0.250913 6.89477 1.16576 4.84299 2.64883 3.23261C4.13189 1.62222 6.10156 0.541873 8.25667 0.156739C9.67247 -0.105869 11.129 -0.0499995 12.5205 0.320294C13.912 0.690588 15.2037 1.36602 16.3017 2.29757C17.4641 3.27474 18.3978 4.49522 19.0369 5.87281C19.6759 7.25039 20.0047 8.75149 20 10.2701V15.4167C19.9985 16.6318 19.5151 17.7967 18.6559 18.6559C17.7967 19.5151 16.6318 19.9985 15.4167 20.0001ZM10.025 2.50007C8.15376 2.49845 6.34917 3.19479 4.96403 4.45294C3.57889 5.7111 2.71277 7.44062 2.53501 9.3034C2.43305 10.2971 2.54218 11.301 2.85525 12.2496C3.16832 13.1981 3.67826 14.0698 4.35167 14.8076C5.19095 15.683 6.20304 16.3744 7.32373 16.8379C8.44441 17.3014 9.64921 17.5269 10.8617 17.5001H15.4167C15.9692 17.5001 16.4991 17.2806 16.8898 16.8899C17.2805 16.4992 17.5 15.9693 17.5 15.4167V10.2701C17.5038 9.11658 17.2547 7.97628 16.77 6.92953C16.2854 5.88278 15.5771 4.95506 14.695 4.21174C13.3912 3.10436 11.7356 2.49755 10.025 2.50007ZM10 5.00007C9.66849 5.00007 9.35054 5.13177 9.11612 5.36619C8.8817 5.60061 8.75001 5.91855 8.75001 6.25007C8.75001 6.58159 8.8817 6.89954 9.11612 7.13396C9.35054 7.36838 9.66849 7.50007 10 7.50007C10.3315 7.50007 10.6495 7.36838 10.8839 7.13396C11.1183 6.89954 11.25 6.58159 11.25 6.25007C11.25 5.91855 11.1183 5.60061 10.8839 5.36619C10.6495 5.13177 10.3315 5.00007 10 5.00007ZM10.4167 15.8334C10.0852 15.8334 9.76721 15.7017 9.53279 15.4673C9.29837 15.2329 9.16667 14.9149 9.16667 14.5834V10.8334H8.75001C8.41849 10.8334 8.10054 10.7017 7.86612 10.4673C7.6317 10.2329 7.50001 9.91493 7.50001 9.58341C7.50001 9.25188 7.6317 8.93394 7.86612 8.69952C8.10054 8.4651 8.41849 8.33341 8.75001 8.33341H9.58334C10.1359 8.33341 10.6658 8.5529 11.0565 8.9436C11.4472 9.3343 11.6667 9.8642 11.6667 10.4167V14.5834C11.6667 14.9149 11.535 15.2329 11.3006 15.4673C11.0661 15.7017 10.7482 15.8334 10.4167 15.8334Z" fill="#8E9CA3"/>
</g>
<defs>
<clipPath id="clip0_195_244">
<rect width="20" height="20" fill="white"/>
</clipPath>
</defs>
</svg>
