<svg width="46" height="46" viewBox="0 0 46 46" fill="none" xmlns="http://www.w3.org/2000/svg">
<path id="Union" fill-rule="evenodd" clip-rule="evenodd" d="M22.6 2C11.2229 2 2 11.2229 2 22.6C2 26.8517 3.28697 30.7998 5.49245 34.0797C5.62773 34.2809 5.76645 34.4795 5.90854 34.6756C7.6453 31.1931 11.2421 28.7999 15.3998 28.7999H29.7998C33.9576 28.7999 37.5545 31.1932 39.2912 34.6759C39.4334 34.4798 39.5722 34.281 39.7076 34.0797C41.913 30.7998 43.2 26.8517 43.2 22.6C43.2 11.2229 33.9771 2 22.6 2ZM40.1136 36.8851C40.5568 36.3424 40.9752 35.7786 41.3672 35.1957C43.7876 31.5962 45.2 27.2615 45.2 22.6C45.2 10.1184 35.0816 0 22.6 0C10.1184 0 0 10.1184 0 22.6C0 27.2615 1.41241 31.5962 3.83277 35.1957C4.22467 35.7785 4.64303 36.3421 5.08614 36.8847L5.08381 36.8925L5.43882 37.3064C7.5201 39.7329 10.1081 41.7134 13.0389 43.0837C15.5273 44.2472 18.2628 44.9708 21.1452 45.1539C21.6261 45.1845 22.1111 45.2 22.5998 45.2C22.5999 45.2 22.5999 45.2 22.6 45.2C23.0887 45.2 23.5738 45.1845 24.0548 45.1539C30.3567 44.7535 35.9563 41.7698 39.8066 37.253L40.1158 36.8925L40.1136 36.8851ZM22.6 9.6C19.3967 9.6 16.8 12.1967 16.8 15.4C16.8 18.6033 19.3967 21.2 22.6 21.2C25.8033 21.2 28.4 18.6033 28.4 15.4C28.4 12.1967 25.8033 9.6 22.6 9.6Z" fill="#F55905"/>
</svg>
