<svg width="22" height="22" viewBox="0 0 22 22" fill="none" xmlns="http://www.w3.org/2000/svg">
<path d="M18.3018 11.4759L11.4754 18.3023C11.1174 18.6602 10.537 18.6602 10.1791 18.3023L3.69725 11.8205C3.33927 11.4625 3.33927 10.8821 3.69725 10.5241L10.5236 3.69769C10.716 3.50532 10.9839 3.40834 11.2548 3.43297L17.1965 3.97312C17.6372 4.01318 17.9863 4.36234 18.0264 4.80303L18.5665 10.7447C18.5912 11.0156 18.4942 11.2835 18.3018 11.4759Z" stroke="#AEAEAE" stroke-width="2" stroke-linecap="round" stroke-linejoin="round"/>
<path d="M14.3926 7.60711C14.0347 7.24913 13.4543 7.24913 13.0963 7.60711C12.7383 7.96509 12.7383 8.54549 13.0963 8.90347C13.4543 9.26145 14.0347 9.26145 14.3926 8.90347C14.7506 8.54549 14.7506 7.96509 14.3926 7.60711Z" stroke="#AEAEAE" stroke-width="2" stroke-linecap="round" stroke-linejoin="round"/>
</svg>
