<svg width="25" height="25" viewBox="0 0 25 25" fill="none" xmlns="http://www.w3.org/2000/svg">
<path fill-rule="evenodd" clip-rule="evenodd" d="M21.0414 15.0991L20.5796 15.3657C19.6511 15.9018 19.0791 16.8925 19.079 17.9648V18.498C19.079 19.5702 18.5069 20.5609 17.5784 21.097C16.6498 21.6331 15.5058 21.6331 14.5772 21.0971L14.1154 20.8304C13.1868 20.2943 12.0428 20.2943 11.1142 20.8304L10.6524 21.0971C9.72384 21.6331 8.57982 21.6331 7.65126 21.097C6.7227 20.5609 6.15066 19.5702 6.15062 18.498V17.9648C6.15059 16.8925 5.57856 15.9018 4.65 15.3657L4.18825 15.0991C3.2597 14.5629 2.68769 13.5722 2.68769 12.4999C2.68769 11.4277 3.2597 10.437 4.18825 9.90083L4.65004 9.63423C5.5786 9.09812 6.15063 8.10736 6.15066 7.03514V6.50192C6.1507 5.42972 6.72274 4.43898 7.6513 3.90288C8.57986 3.36678 9.72388 3.36676 10.6525 3.90284L11.1143 4.16946C12.0428 4.70557 13.1869 4.70557 14.1155 4.16946L14.5773 3.90284C15.5058 3.36676 16.6499 3.36678 17.5784 3.90288C18.507 4.43898 19.079 5.42972 19.0791 6.50192V7.03514C19.0791 8.10736 19.6511 9.09812 20.5797 9.63423L21.0415 9.90083C21.97 10.437 22.542 11.4277 22.542 12.5C22.542 13.5722 21.97 14.5629 21.0414 15.0991Z" stroke="#949BA5" stroke-width="1.5" stroke-linecap="round" stroke-linejoin="round"/>
<circle cx="12.5" cy="12.5" r="3.00125" stroke="#949BA5" stroke-width="1.5" stroke-linecap="round" stroke-linejoin="round"/>
</svg>
