<svg width="40" height="40" viewBox="0 0 40 40" fill="none" xmlns="http://www.w3.org/2000/svg">
<circle cx="20" cy="20" r="20" transform="matrix(-1 0 0 1 40 0)" fill="#F7F7F7"/>
<path d="M28.9902 19.22V23.71C28.9902 28.2 27.1902 30 22.7002 30H17.3102C12.8202 30 11.0202 28.2 11.0202 23.71V19.22" stroke="#F2B709" stroke-width="1.5" stroke-linecap="round" stroke-linejoin="round"/>
<path d="M20 20C18.17 20 16.82 18.51 17 16.68L17.66 10H22.33L23 16.68C23.18 18.51 21.83 20 20 20Z" stroke="#F2B709" stroke-width="1.5" stroke-linecap="round" stroke-linejoin="round"/>
<path d="M13.6902 20C11.6702 20 10.1902 18.36 10.3902 16.35L10.6702 13.6C11.0302 11 12.0302 10 14.6502 10H17.7002L17.0002 17.01C16.8302 18.66 15.3402 20 13.6902 20Z" stroke="#F2B709" stroke-width="1.5" stroke-linecap="round" stroke-linejoin="round"/>
<path d="M26.3601 20C24.7101 20 23.2201 18.66 23.0601 17.01L22.8401 14.8L22.3601 10H25.4101C28.0301 10 29.0301 11 29.3901 13.6L29.6601 16.35C29.8601 18.36 28.3801 20 26.3601 20Z" stroke="#F2B709" stroke-width="1.5" stroke-linecap="round" stroke-linejoin="round"/>
<path d="M20 25C21.67 25 22.5 25.83 22.5 27.5V30H17.5V27.5C17.5 25.83 18.33 25 20 25Z" stroke="#F2B709" stroke-width="1.5" stroke-linecap="round" stroke-linejoin="round"/>
</svg>
