<svg width="20" height="20" viewBox="0 0 20 20" fill="none" xmlns="http://www.w3.org/2000/svg">
<g id="Wifi">
<path id="Vector" d="M13.1719 12.5234C13.2318 12.5799 13.2797 12.6477 13.313 12.7229C13.3463 12.7982 13.3641 12.8793 13.3656 12.9615C13.3671 13.0438 13.3521 13.1255 13.3215 13.2019C13.2909 13.2782 13.2454 13.3477 13.1876 13.4062C13.1299 13.4665 13.0608 13.5148 12.9844 13.5484C12.908 13.5819 12.8257 13.6 12.7422 13.6015C12.5788 13.5996 12.4223 13.5354 12.3047 13.4219C11.6831 12.8305 10.858 12.5007 10.0001 12.5007C9.1421 12.5007 8.31698 12.8305 7.69537 13.4219C7.63734 13.4833 7.56745 13.5323 7.48994 13.5659C7.41244 13.5995 7.32891 13.6171 7.24442 13.6176C7.15993 13.618 7.07622 13.6013 6.99836 13.5685C6.92051 13.5357 6.85011 13.4874 6.79143 13.4266C6.73275 13.3658 6.68701 13.2938 6.65697 13.2148C6.62692 13.1358 6.6132 13.0516 6.61664 12.9672C6.62008 12.8827 6.64059 12.7999 6.67695 12.7236C6.71331 12.6473 6.76476 12.5792 6.82818 12.5234C7.68182 11.7059 8.81812 11.2496 10.0001 11.2496C11.182 11.2496 12.3183 11.7059 13.1719 12.5234ZM10.0001 7.49998C7.81985 7.49044 5.7245 8.34431 4.17193 9.87498C4.10877 9.93129 4.0577 9.99985 4.02181 10.0765C3.98593 10.1531 3.96599 10.2363 3.96319 10.3208C3.96039 10.4054 3.9748 10.4897 4.00554 10.5685C4.03628 10.6474 4.08271 10.7191 4.14201 10.7795C4.20132 10.8399 4.27227 10.8876 4.35055 10.9197C4.42884 10.9518 4.51284 10.9677 4.59745 10.9664C4.68207 10.9651 4.76554 10.9467 4.8428 10.9121C4.92006 10.8776 4.98951 10.8278 5.04693 10.7656C6.37183 9.47334 8.1493 8.75003 10.0001 8.75003C11.8508 8.75003 13.6283 9.47334 14.9532 10.7656C15.0105 10.8232 15.0787 10.8688 15.1538 10.8996C15.2289 10.9305 15.3095 10.946 15.3907 10.9453C15.5146 10.9451 15.6357 10.908 15.7385 10.8389C15.8413 10.7697 15.9213 10.6715 15.9682 10.5568C16.0151 10.4421 16.0268 10.316 16.0019 10.1946C15.9769 10.0732 15.9165 9.96194 15.8282 9.87498C14.2756 8.34431 12.1803 7.49044 10.0001 7.49998ZM18.4844 7.22654C16.2221 4.99935 13.1747 3.75104 10.0001 3.75104C6.82539 3.75104 3.77802 4.99935 1.51568 7.22654C1.39758 7.34361 1.33082 7.5028 1.33008 7.66909C1.32935 7.83538 1.39471 7.99516 1.51178 8.11326C1.62884 8.23136 1.78803 8.29813 1.95433 8.29886C2.12062 8.29959 2.28039 8.23423 2.3985 8.11717C4.42452 6.11998 7.15515 5.00037 10.0001 5.00037C12.845 5.00037 15.5756 6.11998 17.6016 8.11717C17.7192 8.23067 17.8757 8.29495 18.0391 8.29685C18.1621 8.29456 18.2817 8.25649 18.3834 8.1873C18.485 8.1181 18.5643 8.02078 18.6116 7.90724C18.6588 7.79369 18.672 7.66884 18.6494 7.54795C18.6268 7.42707 18.5695 7.31538 18.4844 7.22654ZM10.0001 14.6875C9.81464 14.6875 9.63338 14.7425 9.47921 14.8455C9.32504 14.9485 9.20488 15.0949 9.13392 15.2662C9.06296 15.4375 9.0444 15.626 9.08057 15.8079C9.11675 15.9897 9.20603 16.1568 9.33715 16.2879C9.46826 16.419 9.6353 16.5083 9.81716 16.5445C9.99902 16.5806 10.1875 16.5621 10.3588 16.4911C10.5301 16.4202 10.6765 16.3 10.7796 16.1458C10.8826 15.9917 10.9376 15.8104 10.9376 15.625C10.9376 15.3763 10.8388 15.1379 10.663 14.9621C10.4872 14.7863 10.2487 14.6875 10.0001 14.6875Z" fill="#4B4D5C"/>
</g>
</svg>
