<svg width="54" height="54" viewBox="0 0 54 54" fill="none" xmlns="http://www.w3.org/2000/svg">
<path d="M25.5599 2.30734C26.3549 1.41934 27.7452 1.41934 28.5402 2.30734L33.964 8.36603C34.3692 8.8186 34.9581 9.06251 35.5646 9.02898L43.684 8.58011C44.874 8.51432 45.8571 9.49742 45.7913 10.6875L45.3424 18.8069C45.3089 19.4134 45.5528 20.0022 46.0054 20.4074L52.0641 25.8313C52.9521 26.6262 52.9521 28.0165 52.0641 28.8115L46.0054 34.2354C45.5528 34.6406 45.3089 35.2294 45.3424 35.8359L45.7913 43.9553C45.8571 45.1454 44.874 46.1285 43.684 46.0627L35.5646 45.6138C34.9581 45.5803 34.3692 45.8242 33.964 46.2768L28.5402 52.3354C27.7452 53.2235 26.3549 53.2235 25.5599 52.3354L20.136 46.2768C19.7309 45.8242 19.142 45.5803 18.5355 45.6138L10.4161 46.0627C9.22606 46.1285 8.24296 45.1454 8.30875 43.9553L8.75762 35.8359C8.79115 35.2294 8.54723 34.6406 8.09467 34.2354L2.03598 28.8115C1.14797 28.0165 1.14797 26.6262 2.03598 25.8313L8.09467 20.4074C8.54723 20.0022 8.79115 19.4134 8.75762 18.8069L8.30875 10.6875C8.24296 9.49742 9.22606 8.51432 10.4161 8.58011L18.5355 9.02898C19.142 9.06251 19.7309 8.8186 20.136 8.36603L25.5599 2.30734Z" stroke="#FC4F00" stroke-width="2"/>
<rect x="20.3804" y="20.6517" width="0.0263571" height="0.0263571" stroke="#051F6E" stroke-width="3" stroke-linejoin="round"/>
<rect x="33.7197" y="33.9911" width="0.0263571" height="0.0263571" stroke="#051F6E" stroke-width="3" stroke-linejoin="round"/>
<path d="M35.0537 19.318L19.0466 35.3251" stroke="#051F6E" stroke-width="2" stroke-linecap="round" stroke-linejoin="round"/>
</svg>
